<svg width="337" height="305" viewBox="0 0 337 305" fill="none" xmlns="http://www.w3.org/2000/svg">
<path d="M0.680104 249.836C3.6101 248.4 4.85009 244.589 8.04009 243.595C11.3001 242.574 14.9301 244.589 17.9101 242.38C19.2201 241.414 20.1801 239.812 21.7601 239.232C23.1401 238.735 24.5801 239.287 25.9101 239.702C27.0501 240.061 28.18 240.392 29.32 240.751C33.88 242.159 38.42 243.54 42.98 244.948C48.16 246.522 53.31 248.124 58.48 249.698C58.98 249.864 59.2 249.063 58.7 248.897C49.24 245.998 39.8 243.098 30.34 240.199C28.13 239.536 25.8301 238.514 23.5301 238.238C21.9301 238.045 20.6501 238.68 19.5201 239.729C17.9401 241.193 16.75 242.546 14.46 242.656C12.55 242.767 10.6601 242.27 8.76006 242.574C4.83006 243.181 3.61009 247.461 0.29009 249.091C-0.20991 249.367 0.210104 250.085 0.680104 249.836Z" fill="#9F65C2"/>
<path d="M50.4001 246.357C52.3701 246.854 53.91 244.893 55.69 244.313C58.07 243.512 60.6101 243.844 62.7701 245.086C63.2401 245.362 63.6601 244.644 63.1801 244.368C61.3601 243.291 59.2801 242.85 57.1801 243.126C56.2701 243.236 55.41 243.485 54.58 243.844C53.39 244.368 52.01 245.887 50.62 245.556C50.1 245.418 49.8701 246.219 50.4001 246.357Z" fill="#9F65C2"/>
<path d="M71.74 244.286C69.88 242.767 68.11 241.138 66.45 239.398C65.68 238.597 64.93 237.741 64.21 236.885C63.79 236.388 63.38 235.891 62.99 235.394C62.71 235.035 62.44 234.676 62.19 234.317C61.75 233.875 61.75 233.323 62.22 232.715C62.55 232.853 63.0701 232.522 62.8001 232.135C61.1101 229.871 59.8601 227.386 59.0601 224.679C58.9001 224.845 58.7301 225.011 58.5601 225.176C59.4801 225.425 60.14 225.894 60.64 226.668C60.92 227.109 61.64 226.723 61.36 226.253C57.24 219.129 53.8601 211.618 51.3101 203.803C51.0901 203.941 50.84 204.079 50.62 204.217C62.22 215.594 67.47 231.417 77.24 244.148C77.57 244.562 78.29 244.148 77.96 243.733C68.17 230.948 62.85 215.07 51.2 203.637C50.93 203.361 50.37 203.637 50.51 204.051C53.08 211.949 56.46 219.516 60.64 226.695C60.89 226.557 61.11 226.419 61.36 226.281C60.72 225.315 59.8901 224.679 58.7901 224.403C58.4801 224.32 58.1801 224.597 58.2901 224.9C59.1201 227.662 60.39 230.23 62.11 232.55C62.3 232.356 62.49 232.163 62.69 231.97C61.91 231.611 61.05 231.97 60.86 232.881C60.61 234.179 62.1901 235.615 62.9101 236.526C65.3701 239.591 68.17 242.38 71.21 244.865C71.57 245.197 72.15 244.617 71.74 244.286Z" fill="#9F65C2"/>
<path d="M68.8299 227.027C63.7399 219.433 59.6199 211.286 56.5699 202.671C56.4899 202.836 56.38 203.002 56.29 203.168C57.24 202.947 58.04 203.306 58.56 204.134C58.84 204.604 59.5 204.19 59.28 203.72C54.99 194.469 50.62 184.832 50.93 174.421C50.68 174.504 50.4 174.559 50.15 174.642C57.54 189.83 64.5699 205.211 71.2099 220.731C71.3999 221.172 72.1199 220.841 71.9599 220.399C70.8499 217.085 69.77 213.744 68.66 210.43C68.14 208.801 67.58 207.2 67.06 205.57C66.7 204.493 65.9199 202.146 67.4699 201.566C67.3099 201.511 67.17 201.428 67 201.373C69 205.266 70.9599 209.16 72.9499 213.054C73.1999 213.523 73.92 213.109 73.67 212.64C71.51 208.415 70.5199 203.748 70.7099 198.998C70.4299 199.026 70.16 199.081 69.91 199.108C75.66 213.385 82.3299 227.303 89.8299 240.751C90.0799 241.22 90.8 240.806 90.55 240.337C83.08 226.944 76.4399 213.109 70.7099 198.888C70.5499 198.473 69.91 198.501 69.91 198.998C69.72 203.886 70.77 208.663 72.98 213.054C73.23 212.916 73.4499 212.778 73.6999 212.64C71.7099 208.746 69.74 204.852 67.75 200.959C67.67 200.821 67.45 200.71 67.28 200.765C64.51 201.787 66.28 205.736 66.89 207.586C68.33 211.922 69.74 216.285 71.18 220.62C71.43 220.51 71.68 220.399 71.93 220.289C65.29 204.769 58.26 189.388 50.87 174.2C50.68 173.814 50.1 174.035 50.1 174.421C49.76 184.97 54.22 194.773 58.56 204.134C58.81 203.996 59.03 203.858 59.28 203.72C58.56 202.588 57.3999 202.091 56.0699 202.367C55.8499 202.422 55.71 202.671 55.8 202.864C58.87 211.535 63.02 219.764 68.14 227.413C68.41 227.883 69.1299 227.468 68.8299 227.027Z" fill="#9F65C2"/>
<path d="M14.1501 280.405C23.7301 275.794 33.8301 271.099 44.7601 272.204C49.9301 272.728 54.94 274.22 60.09 274.882C62.69 275.214 65.3201 275.352 67.9201 275.048C70.3501 274.744 72.6501 273.861 75.0301 273.336C78.1001 272.646 80.89 273.364 83.86 274.192C86.29 274.855 88.7 275.407 91.22 274.827C91.74 274.717 91.52 273.916 90.99 274.026C85.96 275.214 81.2301 271.596 76.1301 272.314C73.6201 272.673 71.2601 273.667 68.7701 274.109C66.1501 274.551 63.4601 274.496 60.8101 274.164C55.5801 273.557 50.48 272.01 45.23 271.431C40.05 270.851 34.93 271.513 29.98 272.949C24.33 274.606 18.99 277.147 13.74 279.687C13.24 279.908 13.6801 280.626 14.1501 280.405Z" fill="#9F65C2"/>
<path d="M70.3199 303.297C73.5599 301.917 76.7399 300.398 79.8199 298.686C81.4199 297.775 82.9999 296.836 84.5699 295.842C85.9899 294.93 87.3999 293.632 88.9499 292.97C90.6899 292.252 93.32 293.605 95.06 294.13C96.92 294.709 98.7699 295.262 100.6 295.842C104.39 297.001 108.18 298.161 111.94 299.321C112.44 299.487 112.66 298.686 112.16 298.52C108.12 297.278 104.06 296.035 100.02 294.792C98.08 294.185 96.1399 293.605 94.1999 292.997C92.7099 292.528 90.83 291.561 89.25 291.948C87.78 292.307 86.4599 293.577 85.2099 294.406C83.6099 295.455 81.95 296.477 80.29 297.443C76.94 299.349 73.48 301.061 69.91 302.552C69.41 302.773 69.8499 303.491 70.3199 303.297Z" fill="#9F65C2"/>
<path d="M104.75 304.154C106.85 303.104 108.95 302.027 111.06 300.978C112.99 299.984 115.07 298.658 117.28 298.465C119.52 298.244 121.27 299.708 123.2 300.564C124.84 301.282 126.61 301.696 128.38 301.806C132.53 302.027 136.4 299.956 140.53 300.177C143.82 300.37 147.14 303.077 150.38 301.365C150.85 301.116 150.43 300.398 149.96 300.647C147.94 301.724 145.76 300.674 143.76 300.039C142.05 299.487 140.39 299.238 138.59 299.432C134.33 299.873 130.43 301.668 126.05 300.647C122.43 299.818 119.66 296.808 115.76 297.94C113.96 298.465 112.27 299.459 110.61 300.288C108.51 301.337 106.41 302.414 104.3 303.463C103.86 303.684 104.28 304.402 104.75 304.154Z" fill="#9F65C2"/>
<path d="M120.91 298.161C119.19 296.67 117.64 295.013 116.37 293.108C115.79 292.252 115.26 291.34 114.76 290.429C114.51 289.96 114.29 289.49 114.1 289.021C113.93 288.634 113.77 288.275 113.63 287.889C113.38 287.474 113.49 287.088 113.96 286.729C114.21 286.618 114.46 286.508 114.71 286.397C111.66 281.924 109.76 276.843 109.12 271.486C108.87 271.596 108.65 271.679 108.4 271.79C108.9 272.425 109.4 273.06 109.92 273.723C110.23 274.109 110.81 273.612 110.59 273.225C105.77 264.637 103.2 254.972 103.14 245.142C102.89 245.252 102.67 245.335 102.42 245.445C104.3 246.964 105.74 248.842 106.63 251.079C106.88 250.968 107.13 250.858 107.38 250.747C105.22 246.191 104.77 241.055 106.05 236.195C105.77 236.195 105.52 236.195 105.25 236.195C110.92 252.404 116.56 268.586 122.24 284.796C122.4 285.293 123.2 285.072 123.04 284.575C120.19 276.263 118.78 267.537 118.86 258.728C118.61 258.838 118.39 258.921 118.14 259.032C119.83 260.55 120.88 262.456 121.27 264.693C121.35 265.162 122.1 265.052 122.07 264.582C121.99 262.898 121.88 261.186 121.79 259.501C121.57 259.612 121.38 259.75 121.16 259.86C122.62 260.799 122.9 263.284 123.37 264.831C123.87 266.488 124.37 268.144 124.89 269.829C125.92 273.253 126.97 276.65 127.99 280.074C130.07 286.895 132.14 293.743 134.22 300.564C134.38 301.061 135.19 300.867 135.02 300.343C132.78 292.997 130.56 285.624 128.32 278.279C127.24 274.689 126.14 271.099 125.06 267.509C124.5 265.659 123.95 263.837 123.4 261.986C123.04 260.854 122.62 259.832 121.6 259.17C121.35 259.004 120.96 259.225 120.96 259.529C121.05 261.213 121.16 262.925 121.24 264.61C121.52 264.582 121.79 264.527 122.04 264.499C121.65 262.124 120.49 260.053 118.69 258.452C118.42 258.203 118 258.369 117.97 258.755C117.89 267.62 119.3 276.429 122.18 284.823C122.46 284.741 122.71 284.685 122.98 284.603C117.31 268.393 111.66 252.211 105.99 236.001C105.85 235.642 105.3 235.587 105.19 236.001C103.86 241.11 104.36 246.439 106.6 251.189C106.79 251.603 107.54 251.3 107.35 250.858C106.41 248.483 104.94 246.467 102.92 244.865C102.64 244.645 102.2 244.783 102.2 245.169C102.26 255.138 104.86 264.969 109.76 273.667C109.98 273.502 110.2 273.336 110.42 273.17C109.92 272.535 109.42 271.9 108.9 271.237C108.68 270.961 108.15 271.182 108.18 271.541C108.81 277.064 110.75 282.283 113.88 286.867C114.16 287.254 114.71 287.005 114.63 286.536C114.49 285.762 113.57 285.486 112.94 285.956C111.78 286.784 112.91 288.745 113.33 289.684C114.9 293.191 117.25 296.256 120.16 298.769C120.74 299.072 121.32 298.493 120.91 298.161Z" fill="#9F65C2"/>
<path d="M91.96 236.222C91.6 231.031 101.04 234.013 103.67 234.51C107.98 235.311 112.27 236.112 116.59 236.913C125.2 238.514 133.83 240.116 142.44 241.718C142.96 241.828 143.18 241.027 142.66 240.917C132.78 239.067 122.93 237.244 113.05 235.394C108.21 234.483 103.36 233.571 98.52 232.688C96.78 232.356 94.76 231.997 93.13 232.909C91.88 233.571 91.05 234.786 91.16 236.222C91.16 236.747 92.02 236.747 91.96 236.222Z" fill="#9F65C2"/>
<path d="M136.71 240.806C139.59 241.11 141.36 238.376 143.6 237.051C145.51 235.946 147.17 236.802 149.13 237.189C151.32 237.631 153.56 237.686 155.77 237.41C156.3 237.354 156.3 236.526 155.77 236.581C153.28 236.885 150.79 236.775 148.36 236.167C146.89 235.78 145.56 235.311 144.1 235.891C141.49 236.885 139.72 240.309 136.71 239.978C136.18 239.923 136.18 240.751 136.71 240.806Z" fill="#9F65C2"/>
<path d="M189.48 293.909C196.12 291.589 202.81 289.269 209.68 287.612C216.84 285.9 224.07 285.21 231.43 285.431C238.7 285.652 245.93 286.48 253.18 287.143C260.45 287.833 267.73 288.496 275.01 289.187C283.36 289.96 291.75 290.733 300.11 291.534C300.63 291.589 300.63 290.761 300.11 290.705C285.19 289.325 270.28 287.944 255.33 286.536C240.97 285.21 226.53 283.249 212.22 286.204C204.36 287.833 196.78 290.484 189.23 293.108C188.76 293.273 188.98 294.074 189.48 293.909Z" fill="#9F65C2"/>
<path d="M218.72 266.736C223.68 265.687 228.33 263.616 233 261.738C238.01 259.75 243.08 258.369 248.44 257.9C253.87 257.43 259.32 257.706 264.71 258.038C270.14 258.369 275.56 258.756 281.01 259.142C287.35 259.612 293.71 260.136 300.05 260.689C300.58 260.744 300.58 259.915 300.05 259.86C288.82 258.866 277.58 258.01 266.32 257.292C255.61 256.602 245.07 256.326 234.86 260.109C229.43 262.125 224.18 264.693 218.48 265.908C218.01 266.046 218.2 266.847 218.72 266.736Z" fill="#9F65C2"/>
<path d="M282.51 234.897C286.46 231.887 290.64 228.932 295.07 226.668C297.23 225.563 299.55 224.679 301.99 224.486C304.62 224.265 307.24 224.79 309.82 225.121C315.05 225.756 320.31 226.143 325.56 226.474C329.05 226.695 333.48 227.192 335.94 224.155C336.27 223.74 335.69 223.161 335.36 223.575C332.56 227.027 326.67 225.729 322.85 225.48C317.59 225.121 312.39 224.624 307.16 223.961C304.92 223.685 302.71 223.464 300.47 223.879C298.25 224.265 296.18 225.149 294.21 226.198C289.95 228.462 285.91 231.279 282.06 234.206C281.68 234.51 282.09 235.228 282.51 234.897Z" fill="#9F65C2"/>
<path d="M130.18 230.34C134.11 227.386 138.06 224.458 141.99 221.504C145.76 218.687 149.27 215.732 154.2 215.484C158.84 215.263 163.6 215.788 168.22 216.174C173.21 216.588 178.16 217.141 183.08 217.831C187.23 218.411 192.19 219.957 196.12 217.803C196.59 217.555 196.17 216.837 195.7 217.085C193.68 218.19 191.44 218.19 189.2 217.914C186.79 217.61 184.38 217.196 181.98 216.864C177.33 216.229 172.65 215.705 167.95 215.318C163.33 214.931 158.54 214.379 153.92 214.655C149.63 214.904 146.45 217.113 143.1 219.626C138.64 222.94 134.22 226.281 129.76 229.595C129.35 229.954 129.76 230.672 130.18 230.34Z" fill="#9F65C2"/>
<path d="M285.86 259.529C286.1 257.706 286.46 255.939 286.99 254.172C287.24 253.343 287.49 252.515 287.82 251.686C288.01 251.189 288.54 250.361 289.26 250.554C289.62 250.665 289.78 251.907 289.81 252.156C289.87 252.598 290.48 252.736 290.61 252.266C291.92 248.041 293.41 243.402 297.39 240.944C297.17 240.834 296.98 240.696 296.76 240.585C296.76 241.276 296.73 241.994 296.73 242.684C296.73 243.071 297.31 243.264 297.5 242.905C299.97 237.796 302.65 232.439 307.63 229.346C307.44 229.181 307.22 229.043 307.02 228.877C304.53 235.311 301.63 241.579 298.33 247.655C298.11 248.041 298.67 248.538 299 248.152C300.85 245.943 302.73 243.733 305.17 242.132C304.98 241.938 304.78 241.745 304.59 241.552C301.52 248.014 298.17 254.31 294.49 260.44C294.21 260.909 294.93 261.324 295.21 260.854C298.86 254.724 302.24 248.428 305.31 241.966C305.47 241.635 305.11 241.138 304.73 241.386C302.24 243.043 300.3 245.28 298.39 247.544C298.61 247.71 298.83 247.876 299.05 248.041C302.37 241.911 305.31 235.587 307.83 229.07C307.96 228.739 307.49 228.435 307.22 228.601C302.1 231.776 299.33 237.216 296.79 242.463C297.03 242.546 297.31 242.601 297.56 242.684C297.56 241.994 297.59 241.276 297.59 240.585C297.59 240.282 297.23 240.061 296.95 240.226C292.8 242.794 291.17 247.599 289.81 252.045C290.09 252.073 290.37 252.128 290.61 252.156C290.48 250.747 289.2 248.345 287.65 250.14C286.88 251.051 286.57 252.542 286.24 253.675C285.69 255.497 285.3 257.375 285.02 259.28C285 259.833 285.77 260.053 285.86 259.529Z" fill="#9F65C2"/>
<path d="M92.5201 212.916C94.6701 211.756 96.86 210.596 99.24 209.961C101.76 209.298 104.25 209.519 106.77 209.851C111.78 210.513 116.78 211.176 121.76 211.839C122.29 211.922 122.29 211.093 121.76 211.01C116.42 210.292 111.06 209.519 105.72 208.884C103.25 208.58 100.9 208.58 98.5201 209.271C96.2501 209.933 94.15 211.066 92.07 212.17C91.6 212.474 92.0501 213.164 92.5201 212.916Z" fill="#9F65C2"/>
<path d="M260.84 25.6071C262.83 23.9231 265.63 24.2541 267.81 25.3311C269.47 26.1321 270.83 27.7611 272.77 27.8441C274.57 27.8991 276.06 26.6841 277.58 25.8841C278.61 25.3591 279.66 25.0001 280.82 25.2481C282.06 25.4971 283.14 26.2151 284.28 26.7121C288.01 28.3411 290.5 26.0771 293.66 24.2821C294.54 23.7851 295.48 23.3431 296.51 23.2601C297.81 23.1501 298.97 23.7301 300.13 24.2271C301.96 25.0001 303.34 25.3041 305.2 24.5581C307.11 23.8121 308.66 23.9231 310.57 24.6131C311.78 25.0551 312.95 25.6071 314.22 25.8841C316.13 26.3251 318.17 26.2151 319.61 24.7511C320 24.3651 319.39 23.7851 319.03 24.1711C317.18 26.0491 314.36 25.1661 312.23 24.3371C310.07 23.5091 307.85 22.6251 305.56 23.4811C304.12 24.0331 303.15 24.4201 301.6 23.8951C300.55 23.5361 299.58 22.9561 298.5 22.6531C296.87 22.1561 295.35 22.4321 293.85 23.1771C292.14 24.0331 290.64 25.3871 288.84 26.1041C286.46 27.0431 284.61 25.8011 282.45 24.8891C280.87 24.2271 279.38 24.1161 277.8 24.8071C275.89 25.6631 274.04 27.5401 271.8 26.7401C270.61 26.3251 269.67 25.3591 268.59 24.7511C267.68 24.2541 266.68 23.8951 265.65 23.7021C263.69 23.3431 261.78 23.6741 260.23 24.9721C259.84 25.3871 260.45 25.9661 260.84 25.6071Z" fill="#9F65C2"/>
<path d="M270.8 44.4681C271.33 44.4681 271.33 43.6401 270.8 43.6401C270.28 43.6401 270.28 44.4681 270.8 44.4681Z" fill="#9F65C2"/>
<path d="M276.34 47.478C277.64 45.131 280.71 46.263 282.62 47.036C284.53 47.809 286.24 48.279 288.26 47.588C289.92 47.009 291.42 45.904 293.13 45.517C295.51 44.965 296.87 46.981 299.03 47.45C302.4 48.196 305.81 44.44 308.99 46.014C309.87 46.456 310.48 47.036 311.53 46.953C312.5 46.898 313.39 46.429 314.33 46.208C316.96 45.6 319.7 46.07 322.05 47.368C322.52 47.616 322.93 46.898 322.46 46.65C320.97 45.821 319.36 45.324 317.68 45.158C316.82 45.076 315.93 45.103 315.08 45.241C314.05 45.379 313.11 45.821 312.11 46.014C310.76 46.263 310.18 45.6 309.07 45.131C308.52 44.91 307.91 44.799 307.33 44.827C305.94 44.882 304.62 45.462 303.34 45.932C301.71 46.539 299.97 47.119 298.31 46.291C296.9 45.6 295.79 44.551 294.13 44.551C290.7 44.578 288.29 47.865 284.67 46.87C281.98 46.125 277.66 43.501 275.67 47.036C275.37 47.533 276.09 47.947 276.34 47.478Z" fill="#9F65C2"/>
<path d="M249.5 80.5321C251.46 78.9861 253.7 79.0691 255.86 80.0631C257.05 80.6151 258.32 81.1401 259.57 80.3941C260.29 79.9521 260.76 79.2621 261.62 79.0141C262.53 78.7371 263.5 78.9311 264.38 79.1521C265.96 79.5381 267.48 80.2291 269.11 80.3391C271.05 80.4771 272.82 79.6491 274.7 79.4551C276.72 79.2621 278.13 80.4771 280.02 80.7531C281.84 81.0021 283.25 79.5381 285.08 79.8141C287.29 80.1461 289.48 80.8911 291.67 81.4441C292.19 81.5821 292.41 80.7811 291.89 80.6431C289.59 80.0631 287.21 79.1791 284.86 78.9311C282.87 78.7101 281.43 80.3391 279.44 79.7321C277.58 79.1791 276.25 78.3781 274.26 78.6551C272.13 78.9581 270.19 79.7871 268.01 79.3171C266.32 78.9581 264.69 78.1581 262.94 78.0471C262.31 78.0191 261.64 78.0751 261.03 78.3231C260.26 78.6271 259.84 79.2621 259.12 79.6761C257.46 80.6431 255.22 78.5991 253.45 78.4611C251.76 78.3231 250.21 78.9031 248.89 79.9251C248.47 80.2841 249.08 80.8641 249.5 80.5321Z" fill="#9F65C2"/>
<path d="M90.86 20.2781C91.38 20.2781 91.38 19.4491 90.86 19.4491C90.33 19.4491 90.33 20.2781 90.86 20.2781Z" fill="#9F65C2"/>
<path d="M93.29 20.9131C93.79 18.4551 97.05 20.0291 98.24 20.7751C99.6 21.6311 101.04 22.4041 102.7 21.9351C104.5 21.4101 105.72 19.8641 107.71 19.7531C109.59 19.6701 111.42 20.5261 113.19 21.0791C114.71 21.5481 116.31 21.8791 117.89 21.4931C119.74 21.0511 121.32 19.7531 123.2 19.4221C126.91 18.7871 130.26 21.7971 134.02 20.6371C134.52 20.4711 134.33 19.6701 133.8 19.8361C129.87 21.0791 126.14 17.5991 122.15 18.8421C120.1 19.4771 118.39 20.9131 116.15 20.8301C114.07 20.7471 112.19 19.7531 110.23 19.2561C108.68 18.8691 107.1 18.7591 105.6 19.4491C104.75 19.8361 104 20.4711 103.14 20.8851C101.73 21.5481 100.54 21.1611 99.27 20.4441C97.88 19.6431 96.69 18.7041 95.01 18.8421C93.82 18.9251 92.77 19.5321 92.54 20.7471C92.41 21.2171 93.21 21.4381 93.29 20.9131Z" fill="#9F65C2"/>
<path d="M95.8101 182.153C99.1001 180.773 102.42 183.23 105.74 183.396C107.46 183.479 109.12 183.065 110.81 182.733C112.94 182.319 114.76 182.291 116.81 183.147C118.06 183.672 119.19 184.003 120.46 183.506C121.18 183.23 121.79 182.761 122.51 182.512C123.31 182.236 124.14 182.181 125 182.181C127.96 182.236 130.92 183.258 133.75 181.932C134.22 181.711 133.8 180.994 133.33 181.214C130.32 182.623 126.97 181.076 123.78 181.408C122.26 181.573 121.27 182.457 119.86 182.871C118.17 183.368 116.51 181.932 114.85 181.684C111.28 181.132 107.9 183.12 104.3 182.402C101.43 181.822 98.52 180.137 95.59 181.38C95.12 181.573 95.3401 182.374 95.8101 182.153Z" fill="#9F65C2"/>
<path d="M35.98 141.477C38.4 141.477 40.36 139.524 40.36 137.114C40.36 134.705 38.4 132.751 35.98 132.751C33.57 132.751 31.61 134.705 31.61 137.114C31.61 139.524 33.57 141.477 35.98 141.477Z" fill="#5312A7"/>
<path d="M290.48 111.488C292.17 111.488 293.55 110.116 293.55 108.423C293.55 106.73 292.17 105.358 290.48 105.358C288.78 105.358 287.4 106.73 287.4 108.423C287.4 110.116 288.78 111.488 290.48 111.488Z" fill="#5312A7"/>
<path d="M262.83 4.70306C264.09 4.70306 265.1 3.69006 265.1 2.43906C265.1 1.18806 264.09 0.175049 262.83 0.175049C261.58 0.175049 260.56 1.18806 260.56 2.43906C260.56 3.69006 261.58 4.70306 262.83 4.70306Z" fill="#5312A7"/>
<path d="M162.88 201.069C164.44 201.069 165.71 199.808 165.71 198.252C165.71 196.697 164.44 195.436 162.88 195.436C161.33 195.436 160.06 196.697 160.06 198.252C160.06 199.808 161.33 201.069 162.88 201.069Z" fill="#5312A7"/>
<path d="M32.77 41.0991C34.56 41.0991 36.01 39.6531 36.01 37.8681C36.01 36.0841 34.56 34.6371 32.77 34.6371C30.99 34.6371 29.54 36.0841 29.54 37.8681C29.54 39.6531 30.99 41.0991 32.77 41.0991Z" fill="#5312A7"/>
<path d="M144.4 154.456C145.42 154.456 146.25 153.628 146.25 152.606C146.25 151.584 145.42 150.756 144.4 150.756C143.38 150.756 142.55 151.584 142.55 152.606C142.55 153.628 143.38 154.456 144.4 154.456Z" fill="#5312A7"/>
<path d="M319.39 170.196C320.95 170.196 322.21 168.935 322.21 167.38C322.21 165.824 320.95 164.563 319.39 164.563C317.83 164.563 316.57 165.824 316.57 167.38C316.57 168.935 317.83 170.196 319.39 170.196Z" fill="#5312A7"/>
<path d="M11.74 216.754C12.91 216.754 13.85 215.814 13.85 214.655C13.85 213.496 12.91 212.557 11.74 212.557C10.58 212.557 9.64001 213.496 9.64001 214.655C9.64001 215.814 10.58 216.754 11.74 216.754Z" fill="#5312A7"/>
<path d="M97.75 53.6641C95.34 58.5511 92.9 63.4391 90.5 68.3271C100.46 81.6651 110.42 94.9751 120.38 108.312C122.95 104.419 125.5 100.442 128.07 96.4381C134.13 86.9391 139.92 77.5501 145.45 68.2441C143.57 63.4671 141.66 58.6621 139.78 53.8851C138.56 53.2491 137.34 52.6421 136.13 52.0071C124.34 52.0341 112.55 52.0621 100.79 52.0901C99.74 52.6421 98.74 53.1671 97.75 53.6641Z" fill="white"/>
<path d="M90.83 68.5481C92.93 63.9361 95.0901 59.3521 97.3001 54.7961C97.5201 54.3261 96.83 53.8851 96.58 54.3821C94.37 58.9381 92.21 63.5221 90.11 68.1341C89.89 68.6031 90.61 69.0451 90.83 68.5481Z" fill="#5312A7"/>
<path d="M90.27 69.045C100.02 82.383 109.95 95.555 120.08 108.616C120.41 109.03 120.99 108.451 120.66 108.036C110.59 95.03 100.71 81.913 90.99 68.631C90.69 68.216 89.97 68.631 90.27 69.045Z" fill="#5312A7"/>
<path d="M97.5001 54.3261C98.6601 53.7191 99.79 53.0841 100.96 52.4761C101.43 52.2281 101.01 51.5101 100.54 51.7581C99.3801 52.3661 98.24 53.0011 97.08 53.6081C96.58 53.8851 97.0301 54.5751 97.5001 54.3261Z" fill="#5312A7"/>
<path d="M101.65 52.5311C110.28 52.5311 118.94 52.5311 127.58 52.5311C128.1 52.5311 128.1 51.7031 127.58 51.7031C118.94 51.7031 110.28 51.7031 101.65 51.7031C101.12 51.7031 101.12 52.5311 101.65 52.5311Z" fill="#5312A7"/>
<path d="M145.84 68.161C144.1 63.55 142.3 58.993 140.44 54.409C140.25 53.912 139.45 54.133 139.64 54.63C141.49 59.186 143.29 63.77 145.04 68.382C145.23 68.879 146.03 68.658 145.84 68.161Z" fill="#5312A7"/>
<path d="M144.93 68.575C136.82 81.83 128.54 95.002 120.1 108.064C119.8 108.506 120.52 108.92 120.82 108.478C129.26 95.417 137.54 82.272 145.64 68.99C145.92 68.548 145.2 68.106 144.93 68.575Z" fill="#5312A7"/>
<path d="M139.94 53.553C138.98 52.946 138.01 52.311 137.04 51.703C136.6 51.427 136.18 52.117 136.62 52.421C137.59 53.029 138.56 53.664 139.53 54.271C140 54.575 140.42 53.857 139.94 53.553Z" fill="#5312A7"/>
<path d="M136.1 51.6201C128.88 51.6201 121.65 51.6201 114.46 51.6201C113.93 51.6201 113.93 52.4491 114.46 52.4491C121.68 52.4491 128.9 52.4491 136.1 52.4491C136.62 52.4491 136.62 51.6201 136.1 51.6201Z" fill="#5312A7"/>
<path d="M91.16 68.9621C96.11 66.8361 101.07 64.7091 106.02 62.5831C106.52 62.3621 106.08 61.6721 105.6 61.8651C100.65 63.9911 95.7 66.1181 90.75 68.2441C90.27 68.4651 90.69 69.1831 91.16 68.9621Z" fill="#5312A7"/>
<path d="M97.64 54.078C100.68 54.547 103.67 55.21 106.63 56.038C107.15 56.177 107.38 55.376 106.85 55.238C103.89 54.382 100.9 53.747 97.86 53.277C97.33 53.194 97.08 53.995 97.64 54.078Z" fill="#5312A7"/>
<path d="M106.41 55.9C107.07 57.972 107.65 60.043 108.15 62.169C108.26 62.694 109.06 62.473 108.95 61.948C108.45 59.822 107.87 57.751 107.21 55.68C107.04 55.183 106.24 55.376 106.41 55.9Z" fill="#5312A7"/>
<path d="M107.68 55.983C115.1 55.983 122.48 55.983 129.9 55.983C130.43 55.983 130.43 55.155 129.9 55.155C122.48 55.155 115.1 55.155 107.68 55.155C107.15 55.155 107.15 55.983 107.68 55.983Z" fill="#5312A7"/>
<path d="M129.54 56.1491C129.26 57.6681 128.99 59.2141 128.71 60.7331C128.63 61.2581 129.43 61.4791 129.51 60.9541C129.79 59.4351 130.07 57.8891 130.34 56.3701C130.43 55.8451 129.62 55.6241 129.54 56.1491Z" fill="#5312A7"/>
<path d="M108.59 62.224C115.07 62.224 121.54 62.224 128.05 62.224C128.57 62.224 128.57 61.396 128.05 61.396C121.57 61.396 115.1 61.396 108.59 61.396C108.07 61.396 108.07 62.224 108.59 62.224Z" fill="#5312A7"/>
<path d="M130.7 55.9831C133.72 55.3481 136.71 54.7131 139.72 54.0781C140.25 53.9671 140.03 53.1671 139.5 53.2771C136.49 53.9121 133.5 54.5471 130.48 55.1821C129.96 55.2931 130.18 56.0941 130.7 55.9831Z" fill="#5312A7"/>
<path d="M129.32 61.9761C132.11 62.4171 134.71 63.9911 137.26 65.1791C139.97 66.4491 142.66 67.7191 145.37 68.9901C145.84 69.2111 146.28 68.4931 145.78 68.2721C142.91 66.9191 140.06 65.5931 137.18 64.2401C134.74 63.0801 132.22 61.6171 129.54 61.1751C129.01 61.0921 128.79 61.8931 129.32 61.9761Z" fill="#5312A7"/>
<path d="M108.84 63.4941C112.44 78.2961 116.01 93.1251 119.61 107.926C119.74 108.451 120.52 108.23 120.41 107.705C116.81 92.9041 113.24 78.0751 109.64 63.2731C109.51 62.7491 108.7 62.9701 108.84 63.4941Z" fill="#5312A7"/>
<path d="M128.16 64.4881C124.78 78.7381 121.99 93.1521 119.83 107.65C119.74 108.174 120.55 108.395 120.63 107.871C122.79 93.3731 125.58 78.9861 128.96 64.7091C129.1 64.1851 128.3 63.9641 128.16 64.4881Z" fill="#5312A7"/>
<path d="M128.43 36.8471C129.68 33.6711 130.37 30.3301 130.48 26.9051C130.51 26.3811 129.68 26.3811 129.65 26.9051C129.54 30.2471 128.85 33.5051 127.63 36.6261C127.44 37.1231 128.24 37.3161 128.43 36.8471Z" fill="#5312A7"/>
<path d="M134.11 37.3991C136.76 34.3891 139.75 31.7381 143.1 29.5011C143.54 29.1971 143.13 28.4791 142.68 28.7831C139.28 31.0471 136.21 33.7541 133.52 36.8191C133.17 37.2051 133.75 37.7851 134.11 37.3991Z" fill="#5312A7"/>
<path d="M139.56 42.5071C142.99 41.4861 146.53 41.0991 150.1 41.3751C150.63 41.4031 150.63 40.5741 150.1 40.5471C146.45 40.2711 142.85 40.6571 139.34 41.7071C138.84 41.8721 139.03 42.6731 139.56 42.5071Z" fill="#5312A7"/>
<path d="M81.2501 23.1501C81.5901 28.6171 78.51 33.8371 73.59 36.2111C73.31 36.3491 73.34 36.7641 73.59 36.9291C78.1 39.6361 80.17 44.6061 81.36 49.4941C81.5 50.0191 82.2801 49.7981 82.1701 49.2731C80.9201 44.1641 78.7101 39.0001 74.0001 36.2111C74.0001 36.4601 74.0001 36.6811 74.0001 36.9291C79.1801 34.4161 82.44 28.8661 82.08 23.1501C82.06 22.6251 81.2301 22.6251 81.2501 23.1501Z" fill="#9F65C2"/>
<path d="M81.5601 23.1501C81.2001 28.8941 84.46 34.4441 89.64 36.9291C89.64 36.6811 89.64 36.4601 89.64 36.2111C84.91 39.0281 82.69 44.1921 81.45 49.3281C81.31 49.8531 82.11 50.0741 82.25 49.5491C83.44 44.6341 85.5201 39.6361 90.0501 36.9291C90.3001 36.7911 90.3301 36.3491 90.0501 36.2111C85.1301 33.8371 82.03 28.6171 82.36 23.1501C82.42 22.6251 81.5901 22.6251 81.5601 23.1501Z" fill="#9F65C2"/>
<path d="M216.29 230.451C217.26 230.037 218.59 229.429 220.11 228.573C222.65 227.165 223.93 226.447 224.7 225.315C225.7 223.823 225.31 223.023 226.61 221.531C226.8 221.283 227.72 220.316 228.91 219.792C230.96 218.936 232.86 219.957 236.05 221.09C238.98 222.139 241.28 222.636 245.87 223.658C247.7 224.072 249.91 224.486 253.12 225.48C254.03 225.756 254.75 226.005 255.25 226.171C255.31 226.751 255.33 228.242 254.37 229.595C253.92 230.202 253.31 230.699 252.35 231.141C250.1 232.191 247.97 231.997 246.17 231.914C242.3 231.749 243.91 232.301 234.77 232.467C232.78 232.494 231.15 232.494 230.01 232.494C228.6 233.461 227.19 234.455 225.75 235.477C223.32 237.244 220.99 239.011 218.78 240.751C217.95 237.327 217.12 233.875 216.29 230.451Z" fill="#5312A7"/>
<path d="M204.75 195.105C202.76 196.154 202.54 196.54 195.12 202.837C183.55 212.64 182.28 213.164 171.79 222.305C161.75 231.031 159.87 233.212 157.96 236.084C153.2 243.347 152.15 249.422 151.84 252.377C151.43 256.353 150.87 261.876 154.39 266.239C156.6 268.973 159.48 270.105 160.45 270.464C163.35 271.569 165.73 271.431 170.02 271.127C175.72 270.713 180.07 269.608 181.78 269.139C183.67 268.614 188.04 267.316 193.52 264.61C198.66 262.069 200.88 260.192 207.91 255.47C211.03 253.371 215.65 250.306 221.46 246.771C221.82 244.01 221.52 241.856 221.22 240.503C220.5 237.299 219.03 235.09 217.4 232.66C216.07 230.672 214.8 229.153 213.91 228.159C215.99 226.585 218.7 224.321 221.55 221.283C223.46 219.239 226.47 215.981 228.99 211.397C232.09 205.764 235.19 200.075 233.2 196.154C230.07 189.996 215.18 189.72 204.75 195.105Z" fill="white"/>
<path opacity="0.18" d="M229.54 198.115C227.97 201.76 225.37 206.923 221.22 212.446C215.18 220.427 209.1 224.845 199.91 231.39C173.93 249.891 166.95 254.116 167.73 255.884C168.78 258.286 183.42 253.978 185.55 253.343C201.1 248.759 212.55 241.69 219.72 236.526C217.89 233.737 216.07 230.948 214.24 228.187C216.48 226.585 219.58 224.044 222.49 220.261C224.09 218.19 226.53 214.987 228.11 210.154C229.71 205.349 229.77 201.069 229.54 198.115Z" fill="#9B9797"/>
<path d="M204.64 195.077C194.79 202.395 185.19 210.072 175.95 218.107C171.52 221.946 167.09 225.784 162.94 229.899C159.26 233.544 155.83 237.576 153.75 242.38C151.59 247.351 150.99 253.095 151.51 258.48C151.95 262.926 153.59 267.399 157.65 269.719C161.92 272.121 167.28 271.873 171.99 271.376C177.77 270.796 183.47 269.387 188.87 267.206C200.9 262.318 210.34 253.178 221.71 247.13C222.18 246.882 221.77 246.164 221.3 246.412C211.81 251.466 203.73 258.756 194.21 263.809C189.23 266.46 183.86 268.393 178.32 269.581C173.21 270.658 167.45 271.486 162.25 270.492C159.81 270.022 157.46 269.028 155.72 267.206C154.03 265.411 153.12 263.064 152.65 260.661C151.62 255.442 152.09 249.533 153.81 244.507C155.52 239.481 158.87 235.256 162.52 231.5C166.32 227.607 170.47 224.017 174.53 220.455C184.36 211.839 194.54 203.61 205.06 195.823C205.47 195.491 205.08 194.773 204.64 195.077Z" fill="#5312A7"/>
<path d="M177.52 251.686C186.6 248.179 194.82 242.933 202.62 237.189C206.47 234.372 210.26 231.445 214.02 228.518C217.73 225.618 221.27 222.553 224.15 218.825C224.48 218.411 223.76 217.997 223.43 218.411C220.5 222.222 216.82 225.287 213.05 228.242C209.34 231.141 205.61 234.013 201.79 236.802C194.15 242.38 186.16 247.517 177.3 250.913C176.8 251.079 177.02 251.88 177.52 251.686Z" fill="#5312A7"/>
<path d="M213.61 228.435C218.95 232.909 221.77 239.84 221.02 246.771C220.97 247.296 221.8 247.296 221.85 246.771C222.6 239.647 219.67 232.467 214.19 227.855C213.8 227.496 213.22 228.076 213.61 228.435Z" fill="#5312A7"/>
<path d="M220.97 239.067C222.54 238.597 223.93 237.272 225.26 236.333C226.92 235.173 228.55 234.013 230.21 232.853C230.65 232.55 230.24 231.832 229.79 232.135C228.3 233.185 226.78 234.262 225.28 235.311C223.9 236.278 222.38 237.769 220.74 238.266C220.22 238.404 220.44 239.205 220.97 239.067Z" fill="#5312A7"/>
<path d="M216.4 230.837C219.53 229.54 222.4 227.772 225.01 225.591C225.42 225.232 224.81 224.652 224.42 225.011C221.96 227.11 219.2 228.794 216.21 230.037C215.71 230.258 215.93 231.058 216.4 230.837Z" fill="#5312A7"/>
<path d="M224.7 225.232C225.23 225.232 225.23 224.403 224.7 224.403C224.18 224.403 224.18 225.232 224.7 225.232Z" fill="#5312A7"/>
<path d="M225.7 224.238C226.17 223.133 226.67 221.918 227.55 221.062C228.74 219.902 230.18 220.068 231.7 220.399C234.52 221.034 237.29 221.918 240.06 222.719C242.63 223.437 245.21 224.072 247.86 224.376C249.41 224.541 250.71 224.735 252.1 225.425C253.12 225.922 254.01 226.419 255.14 226.53C255.67 226.585 255.67 225.757 255.14 225.701C253.62 225.563 252.43 224.514 250.99 224.044C249.55 223.575 247.95 223.603 246.45 223.354C243.19 222.829 240 221.835 236.85 220.896C235.3 220.455 233.75 220.013 232.17 219.654C231.01 219.405 229.79 219.101 228.63 219.46C226.61 220.068 225.64 222.222 224.9 224.017C224.7 224.514 225.5 224.735 225.7 224.238Z" fill="#5312A7"/>
<path d="M230.1 233.461C236.02 232.577 241.89 232.439 247.86 232.329C249.94 232.301 252.15 232.053 253.81 230.699C255.22 229.54 256.03 227.855 255.64 226.06C255.53 225.536 254.72 225.756 254.84 226.281C255.36 228.794 253.09 230.644 250.85 231.197C248.55 231.749 246.06 231.473 243.71 231.528C239.06 231.611 234.47 231.997 229.88 232.688C229.35 232.743 229.6 233.544 230.1 233.461Z" fill="#5312A7"/>
<path d="M251.1 227.965C253.15 226.502 255.22 225.038 257.27 223.575C257.41 222.636 257.85 220.592 259.54 218.853C260.04 218.328 261.2 217.113 262.94 216.782C264.77 216.423 266.18 217.251 267.76 217.969C270.3 219.129 272.77 219.571 277.64 220.51C281.48 221.228 283.42 221.587 286.19 221.448C289.95 221.228 292.63 220.233 294.24 221.807C294.41 221.973 295.1 222.719 295.04 223.63C294.96 224.79 293.71 225.535 292.72 226.115C288.37 228.601 285.94 229.319 285.94 229.319C279.79 231.113 276.7 232.025 274.04 232.246C271.88 232.411 268.81 232.494 265.1 231.914C264.02 235.615 260.76 237.989 257.69 237.796C253.73 237.548 250.08 233.102 251.1 227.965Z" fill="#5312A7"/>
<path d="M211.36 203.554C211.97 201.704 213.11 199.357 215.24 198.584C216.62 198.087 217.89 198.418 218.31 198.529C220.88 199.164 226.17 198.252 236.71 196.457C241.94 195.574 248.55 194.276 256.16 192.343C256.19 193.751 256.16 195.601 256.08 197.755C255.89 202.588 255.39 206.233 255.28 207.089C254.81 210.513 253.98 216.202 251.46 223.105C250.82 224.873 250.19 226.336 249.74 227.33C250.82 227.827 251.99 228.49 253.12 229.429C257.8 233.157 259.15 238.431 259.59 240.668C258.93 241.469 257.93 242.656 256.66 244.009C251.51 249.477 246.76 252.542 237.68 258.148C232.09 261.6 227.99 264.113 221.44 267.979C213.47 272.673 207.02 276.318 199 278.61C197 279.19 193.85 279.963 189.86 279.549C187.93 279.356 184.44 278.997 181.09 276.567C176.8 273.474 175.45 268.945 174.89 266.957C173.65 262.511 174.12 258.341 175.28 254.006C176.08 250.968 178.99 240.889 189.09 229.539C191.11 227.275 196.86 222.166 208.32 211.949C211.09 209.491 213.36 207.476 214.88 206.15C213.72 205.266 212.55 204.41 211.36 203.554Z" fill="white"/>
<path opacity="0.18" d="M249 195.905C248.36 198.335 247.34 201.842 245.79 205.957C231.65 243.347 200.05 259.501 202.62 263.533C204.5 266.515 222.54 259.087 235.55 251.272C245.29 245.418 252.54 239.149 257.38 234.427C256.61 233.295 255.42 231.749 253.62 230.285C251.87 228.877 250.21 228.021 248.97 227.496C249.83 226.253 250.96 224.376 251.93 221.973C252.57 220.427 253.12 218.77 253.84 215.401C255 210.071 255.47 205.846 255.61 204.521C255.94 201.345 256.25 197.231 256.19 192.37C253.78 193.53 251.4 194.718 249 195.905Z" fill="#9B9797"/>
<path d="M255.78 192.343C255.8 197.562 255.47 202.781 254.75 207.973C254.09 212.639 253.26 217.444 251.54 221.863C249.69 226.64 246.51 230.119 242.66 233.405C238.73 236.747 234.77 240.033 230.82 243.319C226.28 247.102 221.71 250.858 217.18 254.641C216.76 254.972 217.34 255.552 217.76 255.221C226.09 248.317 234.41 241.441 242.69 234.455C246.34 231.362 249.66 228.159 251.65 223.713C253.59 219.405 254.53 214.683 255.28 210.044C256.22 204.189 256.66 198.28 256.61 192.343C256.61 191.791 255.78 191.791 255.78 192.343Z" fill="#5312A7"/>
<path d="M211.83 204.328C212.97 204.935 214.1 205.543 215.27 206.15C215.74 206.399 216.15 205.681 215.68 205.432C214.55 204.825 213.41 204.217 212.25 203.61C211.78 203.361 211.36 204.079 211.83 204.328Z" fill="#5312A7"/>
<path d="M215.27 205.819C205.41 213.827 195.07 221.752 186.85 231.473C179.76 239.84 173.92 250.444 173.95 261.683C173.95 266.626 175.31 271.79 178.96 275.297C182.61 278.831 187.9 280.212 192.88 279.963C198.97 279.66 204.75 277.257 210.17 274.606C215.99 271.762 221.49 268.393 227.03 265.052C238.43 258.148 251.16 251.714 259.71 241.193C260.04 240.779 259.46 240.199 259.12 240.613C251.96 249.45 241.89 255.11 232.28 260.909C227 264.113 221.77 267.371 216.37 270.409C211.09 273.391 205.58 276.235 199.74 277.92C194.26 279.494 188.15 279.825 182.97 277.092C177.99 274.496 175.45 269.47 174.92 264.002C173.9 252.957 179.46 241.966 186.18 233.571C194.57 223.105 205.53 214.766 215.87 206.371C216.26 206.067 215.68 205.487 215.27 205.819Z" fill="#5312A7"/>
<path d="M249.55 227.662C254.75 230.147 258.38 235.062 259.24 240.751C259.32 241.276 260.12 241.055 260.04 240.53C259.18 234.648 255.36 229.484 249.99 226.944C249.49 226.723 249.08 227.441 249.55 227.662Z" fill="#5312A7"/>
<path d="M251.21 228.38C252.32 227.938 253.2 227.192 254.14 226.474C255.25 225.618 256.39 224.79 257.49 223.934C257.91 223.602 257.49 222.884 257.08 223.216C256.08 223.961 255.08 224.707 254.09 225.48C253.12 226.226 252.15 227.137 250.99 227.579C250.52 227.772 250.71 228.573 251.21 228.38Z" fill="#5312A7"/>
<path d="M257.91 223.602C258.46 221.973 259.12 220.371 260.01 218.88C261.23 216.837 263.05 217.058 265.1 217.582C268.28 218.383 271.33 219.598 274.54 220.316C280.76 221.697 287.16 222.166 293.52 221.752C294.05 221.725 294.05 220.896 293.52 220.924C286.02 221.421 278.47 220.648 271.22 218.604C269.47 218.107 267.79 217.472 266.04 216.975C264.71 216.588 263.14 216.146 261.75 216.423C260.51 216.671 259.79 217.61 259.18 218.659C258.32 220.151 257.66 221.752 257.1 223.381C256.94 223.878 257.74 224.099 257.91 223.602Z" fill="#5312A7"/>
<path d="M259.1 236.94C261.17 235.366 263.22 233.792 265.3 232.218C265.71 231.887 265.3 231.169 264.88 231.5C262.8 233.074 260.76 234.648 258.68 236.222C258.27 236.553 258.68 237.271 259.1 236.94Z" fill="#5312A7"/>
<path d="M265.27 232.025C272.02 233.488 278.91 232.384 285.3 229.954C288.21 228.849 291.53 227.606 294.02 225.729C295.76 224.431 296.01 221.946 293.71 221.062C293.22 220.869 292.99 221.669 293.49 221.863C294.74 222.332 294.88 223.685 294.02 224.624C293.6 225.094 293.02 225.397 292.47 225.729C291.33 226.364 290.17 226.944 289.01 227.496C286.55 228.656 284 229.65 281.37 230.423C276.2 231.914 270.77 232.411 265.46 231.252C264.96 231.113 264.74 231.914 265.27 232.025Z" fill="#5312A7"/>
<path d="M193.16 112.759C197.36 109.279 203.64 105.082 212.03 102.596C215.96 101.437 220.88 100.001 227.41 100.553C237.43 101.409 244.32 106.324 246.76 108.119C250.57 110.908 253.18 113.863 254.78 115.934C255.08 135.292 255.5 154.677 256.03 174.035C256.19 180 256.36 185.992 256.55 191.957C252.62 194.387 247.12 197.12 240.14 198.722C223.82 202.45 210.23 197.479 204.72 195.077C204.7 190.189 204.39 182.844 202.9 174.035C200.46 159.565 196.67 153.738 194.29 141.284C193.1 134.85 191.97 125.185 193.16 112.759Z" fill="#5312A7"/>
<path d="M243.19 117.536C241.83 119.027 241.58 120.711 241.66 127.173C241.72 133.966 242.08 138.605 242.3 143.99C242.47 147.884 242.6 150.977 242.52 155.008C242.44 160.089 242.11 164.259 241.8 167.048C239.09 170.086 236.68 172.461 234.88 174.173C230.84 178.011 226.44 182.153 219.94 186.047C217.37 187.566 215.16 188.67 213.66 189.361C212.3 189.14 210.78 188.808 209.12 188.394C205.19 187.4 203.56 186.516 200.6 186.516C199.71 186.516 196.92 186.516 196.64 187.51C196.39 188.339 197.94 189.637 199.16 190.272C200.3 190.852 200.79 190.686 201.93 191.211C203.2 191.818 204.03 192.702 204.53 193.365C204 194.11 203.2 195.242 202.32 196.706C201.29 198.418 201.07 199.081 199.88 201.124C198.64 203.278 198 204.355 197.45 204.907C196.59 205.708 196.06 205.874 192.22 207.586C188.4 209.298 187.73 209.685 187.73 210.154C187.73 210.624 188.48 210.734 191.44 212.004C193.85 213.026 194.07 213.247 195.31 213.606C196.86 214.048 197.81 214.324 198.94 214.075C200.74 213.716 201.9 212.363 202.4 211.645C202.65 211.866 203.26 212.336 204.06 212.363C204.7 212.363 205.22 212.115 205.64 211.783C207.38 210.541 208.24 208.249 209.95 205.681C210.26 205.239 211.34 203.61 213.08 201.787C214.16 200.627 215.16 199.771 215.87 199.191C216.84 198.97 218.28 198.639 220 198.142C226.67 196.237 231.48 193.945 235.52 192.012C237.87 190.879 240.53 189.388 245.81 186.433C250.41 183.865 252.79 182.429 254.89 179.613C255.11 179.309 256.25 177.79 257.24 175.553C257.55 174.863 258.63 172.405 259.21 168.098C259.48 166.192 259.48 165.143 259.51 159.178C259.57 151.584 259.57 152.495 259.57 151.722C259.54 140.594 258.96 141.588 258.76 131.37C258.74 130.404 258.71 127.781 257.91 124.467C257.05 120.877 255.97 119.275 255.36 118.475C254.59 117.453 253.65 116.238 252.04 115.547C249.11 114.25 245.21 115.299 243.19 117.536Z" fill="white"/>
<path opacity="0.25" d="M252.07 115.52C252.73 117.701 253.54 120.849 254.09 124.66C254.75 129.272 255 134.353 253.51 147.635C252.26 158.736 251.65 164.287 250.05 169.478C247.75 176.879 246.09 182.264 241.03 186.516C237.76 189.25 234.19 190.52 227.03 193.033C221.77 194.883 217.26 195.988 214.16 196.678C211.95 199.661 208.65 203.444 203.98 207.034C200.32 209.85 196.81 211.783 193.9 213.109C194.32 213.385 196.03 214.49 198.36 214.186C201.07 213.827 202.54 211.894 202.79 211.535C203.31 211.922 204.09 212.336 204.94 212.198C206.72 211.922 207.66 209.409 208.13 208.276C209.15 205.929 211.2 202.698 215.79 199.164C218.84 198.363 222.96 197.148 227.75 195.325C234.41 192.757 238.9 190.272 243.71 187.593C251.43 183.285 253.18 181.518 254.45 179.806C256.77 176.686 257.74 173.482 258.16 172.074C258.9 169.561 259.04 166.744 259.32 161.249C259.51 157.162 259.51 154.014 259.51 151.639C259.51 147.552 259.43 144.515 259.35 141.892C259.24 138.081 259.01 133.607 258.46 128.25C258.05 124.356 257.74 122.81 256.86 121.07C255.5 118.309 253.48 116.542 252.07 115.52Z" fill="#9B9797"/>
<path d="M242.77 117.425C241.33 121.015 241.17 124.881 241.25 128.719C241.33 132.944 241.55 137.142 241.75 141.367C242.13 149.927 242.41 158.515 241.39 167.048C241.33 167.573 242.16 167.573 242.22 167.048C243.21 158.709 242.99 150.286 242.6 141.919C242.41 137.777 242.19 133.635 242.08 129.465C241.97 125.461 242.05 121.429 243.57 117.646C243.77 117.149 242.96 116.928 242.77 117.425Z" fill="#5312A7"/>
<path d="M242.99 166.33C240.45 167.739 238.4 169.782 236.43 171.908C234.3 174.2 232.17 176.437 229.79 178.481C224.92 182.706 219.44 186.185 213.58 188.891C213.08 189.112 213.52 189.83 213.99 189.609C219.64 187.013 224.92 183.7 229.65 179.696C232.01 177.735 234.17 175.581 236.24 173.344C238.4 170.997 240.56 168.622 243.38 167.076C243.88 166.772 243.46 166.054 242.99 166.33Z" fill="#5312A7"/>
<path d="M213.77 188.946C210.73 188.311 207.66 187.648 204.61 186.958C203.09 186.627 201.54 186.213 199.99 185.936C199.02 185.771 198 185.688 197.14 186.24C195.81 187.096 195.81 188.67 197 189.609C197.86 190.299 198.97 190.603 199.99 190.935C201.65 191.459 203.06 192.122 204.14 193.53C204.47 193.945 205.19 193.53 204.86 193.116C203.89 191.873 202.73 190.99 201.24 190.465C200.21 190.106 199.08 189.885 198.14 189.361C197.47 189.002 196.62 188.449 197.11 187.455C197.58 186.516 198.77 186.599 199.63 186.737C201.93 187.069 204.22 187.731 206.52 188.256C208.87 188.781 211.23 189.278 213.58 189.775C214.08 189.858 214.3 189.057 213.77 188.946Z" fill="#5312A7"/>
<path d="M203.48 193.669C202.26 195.905 201.02 198.114 199.8 200.351C199.19 201.428 198.66 202.588 197.94 203.637C197.2 204.714 196.2 205.267 195.04 205.819C192.85 206.841 190.5 207.669 188.4 208.856C187.46 209.409 186.85 210.403 187.65 211.369C188.65 212.557 190.61 212.087 191.94 211.866C193.77 211.563 195.51 210.955 197.17 210.182C200.63 208.525 203.56 205.929 205.66 202.726C205.97 202.284 205.25 201.87 204.94 202.312C203.09 205.184 200.52 207.503 197.5 209.105C196.06 209.851 194.51 210.458 192.94 210.817C192.05 211.038 191.11 211.231 190.17 211.259C189.31 211.314 189.09 211.425 188.67 210.569C188.15 210.071 188.2 209.74 188.81 209.574C189.01 209.492 189.17 209.409 189.37 209.326C191.14 208.497 192.94 207.697 194.71 206.868C196.09 206.233 197.45 205.681 198.39 204.438C199.49 202.975 200.27 201.235 201.15 199.633C202.18 197.783 203.2 195.933 204.2 194.11C204.45 193.613 203.73 193.199 203.48 193.669Z" fill="#5312A7"/>
<path d="M216.12 199.716C223.51 197.645 230.68 194.884 237.54 191.459C240.94 189.747 244.27 187.897 247.5 185.854C250.41 184.031 253.48 182.181 255.56 179.392C255.86 178.95 255.14 178.536 254.84 178.978C252.68 181.905 249.3 183.81 246.26 185.688C243.16 187.593 239.95 189.361 236.68 190.99C230.01 194.276 223.07 196.927 215.9 198.943C215.4 199.053 215.63 199.854 216.12 199.716Z" fill="#5312A7"/>
<path d="M243.32 118.171C245.62 113.67 251.52 114.691 254.42 117.895C257.91 121.761 258.07 127.422 258.46 132.337C259.29 143.079 259.46 153.904 258.79 164.646C258.46 169.865 257.69 175.388 254.2 179.53C253.87 179.944 254.45 180.524 254.78 180.11C257.91 176.354 258.99 171.605 259.43 166.855C260.01 160.78 260.01 154.622 259.95 148.519C259.9 142.14 259.59 135.734 259.01 129.382C258.57 124.605 257.71 119.331 253.76 116.155C250.38 113.449 244.74 113.532 242.58 117.757C242.36 118.226 243.08 118.64 243.32 118.171Z" fill="#5312A7"/>
<path d="M191.19 212.336C193.21 213.247 195.65 214.628 197.94 214.628C200.16 214.6 201.79 212.778 203.28 211.397C207.57 207.42 211.86 203.444 216.15 199.495C216.54 199.136 215.96 198.556 215.57 198.915C211.95 202.284 208.32 205.625 204.7 208.994C203.09 210.458 201.43 212.557 199.41 213.468C197.03 214.545 193.77 212.612 191.63 211.645C191.14 211.397 190.72 212.115 191.19 212.336Z" fill="#5312A7"/>
<path d="M202.45 211.756C203.37 213.468 205.39 212.778 206.41 211.59C208.43 209.215 210.01 206.344 211.72 203.775C212.03 203.334 211.31 202.919 211 203.361C209.93 204.963 208.85 206.565 207.77 208.166C207.16 209.05 204.47 213.827 203.17 211.342C202.92 210.872 202.2 211.287 202.45 211.756Z" fill="#5312A7"/>
<path d="M196.03 210.403C196.86 210.845 197.89 211.287 198.8 210.845C199.27 210.596 199.47 210.21 199.69 209.768C200.07 209.022 200.46 208.442 201.18 207.973C201.62 207.669 201.21 206.951 200.77 207.255C200.1 207.697 199.55 208.249 199.16 208.967C198.88 209.492 198.72 210.127 198 210.182C197.47 210.237 196.89 209.906 196.45 209.685C196.01 209.464 195.56 210.154 196.03 210.403Z" fill="#5312A7"/>
<path d="M190.36 52.6141C189.39 54.5751 188.42 57.861 188.12 58.938C187.68 60.484 186.68 64.102 186.13 68.907C185.82 71.558 185.49 74.457 185.77 78.296C185.91 80.118 186.1 82.99 187.18 86.552C187.9 88.982 188.95 92.489 191.8 96.079C194.29 99.2 197.14 101.16 199.41 102.348C200.85 102.375 202.59 102.293 204.53 101.934C208.02 101.271 210.73 99.973 212.55 98.924C212.8 100.332 213.14 101.823 213.55 103.369C214.41 106.573 215.46 109.389 216.51 111.819C217.65 111.626 219 111.295 220.44 110.632C225.01 108.506 227.19 104.585 227.97 102.955C227.55 101.354 227.22 99.614 226.92 97.819C225.86 91.109 226.14 85.1161 226.8 80.2561C227.39 80.4501 228.33 80.698 229.49 80.643C231.76 80.505 233.31 79.262 234.08 78.599C234.75 78.047 237.76 75.368 237.65 71.392C237.62 70.453 237.57 68.161 235.94 66.918C234.41 65.786 232.37 66.201 230.87 66.504C229.16 66.863 227.88 67.581 227.11 68.078C227.69 66.173 228.91 61.285 227.11 55.597C226.72 54.382 224.15 46.6501 216.57 43.3081C206.27 38.7241 193.9 45.5171 190.36 52.6141Z" fill="white"/>
<path opacity="0.24" d="M221.63 52.7801C221.85 55.3481 222.02 59.0761 221.63 63.4941C220.44 76.8871 215.13 86.1931 213.74 88.5131C211.64 92.0481 208.04 97.1841 202.29 102.237C204 102.016 205.97 101.63 208.07 100.884C213.85 98.8411 217.73 95.3341 219.83 93.0421C220 96.1071 220.52 99.8351 221.77 103.922C222.32 105.662 222.93 107.263 223.57 108.699C225.03 106.794 226.47 104.888 227.94 102.955C227.63 101.16 227.36 99.2551 227.16 97.2941C226.53 91.3571 226.53 85.8901 226.86 81.0301C228.11 81.0571 229.9 80.9471 231.81 80.2011C240.17 76.8871 244.93 63.7151 240.42 56.5361C240.23 56.2321 239.23 54.6851 237.18 53.3051C230.84 49.0521 222.79 52.2831 221.63 52.7801Z" fill="#9B9797"/>
<path d="M188.34 58.11C187.79 56.204 187.01 52.5591 187.82 48.0861C188.06 46.7051 188.92 42.2591 191.97 38.7521C196.42 33.6431 202.01 34.6101 209.26 32.0141C213.85 30.3851 220.16 26.9611 226.56 18.8971C225.97 21.8801 225.39 24.8891 224.81 27.8721C225.81 28.1481 229.16 28.8661 232.59 27.1811C238.29 24.3921 238.79 17.6551 238.81 17.3511C239.51 18.8971 240.75 22.3211 240.2 26.6841C239.81 29.6671 238.73 31.904 237.96 33.257C238.29 33.616 240.06 35.438 242.11 35.162C244.6 34.831 246.92 31.4341 246.26 27.0431C246.81 28.6731 247.47 31.3511 247.31 34.6371C247.09 38.6411 245.76 41.6511 244.87 43.2811C245.1 43.4741 246.51 44.7441 248.5 44.4961C250.24 44.2751 251.74 43.0051 252.32 41.2101C252.18 43.0601 251.85 45.738 250.77 48.804C249.3 52.946 248.08 53.2771 247.47 56.2321C246.51 60.8711 249 62.4451 248.33 66.5871C247.78 70.0671 245.51 72.248 242.63 75.037C237.4 80.091 231.4 82.8241 226.36 84.343C226.58 82.7971 226.83 81.2501 227.05 79.7041C227.69 80.0911 228.8 80.6151 230.18 80.5601C233 80.4501 234.77 77.9371 235.71 76.5841C236.79 75.0651 238.59 72.4691 237.62 69.6801C236.82 67.4161 234.69 66.4771 234.5 66.3941C232.01 65.3451 228.8 66.2831 226.72 68.8241C225.56 64.2681 224.42 59.7391 223.26 55.1821C219.33 52.6971 215.43 50.2391 211.5 47.7541C209.57 47.3951 204.28 46.6771 198.36 49.3011C192.38 51.9521 189.34 56.453 188.34 58.11Z" fill="#5312A7"/>
<path d="M187.93 57.9991C185.57 66.7811 184.16 76.1141 186.32 85.0891C188.09 92.3791 192.58 100.691 200.21 103.066C200.71 103.232 200.93 102.431 200.43 102.265C192.77 99.8901 188.48 91.2471 186.9 83.9571C185.05 75.3961 186.46 66.5601 188.7 58.2201C188.87 57.7231 188.06 57.5021 187.93 57.9991Z" fill="#5312A7"/>
<path d="M200.82 102.928C213.58 101.63 224.23 92.4341 227.22 79.9531C227.33 79.4281 226.56 79.2071 226.42 79.7321C223.51 91.7991 213.25 100.829 200.82 102.099C200.3 102.154 200.27 102.983 200.82 102.928Z" fill="#5312A7"/>
<path d="M226.5 80.1731C232.2 83.6531 237.76 76.363 238.12 71.254C238.32 68.548 237.07 66.477 234.39 65.703C231.9 64.985 229.18 65.7311 227.41 67.6091C227.05 67.9951 227.63 68.575 227.99 68.189C229.46 66.615 231.67 65.9241 233.81 66.3941C234.91 66.6421 236.13 67.25 236.77 68.244C237.46 69.321 237.38 70.812 237.21 72C236.54 76.28 231.79 82.4101 226.92 79.4281C226.47 79.1791 226.03 79.8971 226.5 80.1731Z" fill="#5312A7"/>
<path d="M226.44 80.1181C225.37 87.7671 225.75 95.5271 227.58 103.038C227.72 103.563 228.52 103.342 228.38 102.817C226.58 95.4441 226.2 87.8231 227.25 80.3391C227.3 79.8141 226.5 79.5941 226.44 80.1181Z" fill="#5312A7"/>
<path d="M212.14 99.034C213 103.508 214.32 107.843 216.15 112.04C216.37 112.537 217.09 112.096 216.87 111.626C215.07 107.512 213.77 103.231 212.94 98.813C212.83 98.288 212.06 98.509 212.14 99.034Z" fill="#5312A7"/>
<path d="M216.73 112.151C222.07 111.295 226.58 107.622 228.6 102.624C228.8 102.127 227.99 101.906 227.8 102.403C225.89 107.153 221.55 110.549 216.51 111.35C215.99 111.433 216.21 112.234 216.73 112.151Z" fill="#5312A7"/>
<path d="M212.8 100C213.94 100.056 214.71 99.282 215.57 98.62C216.7 97.736 217.78 96.797 218.78 95.803C220.63 93.953 222.13 91.827 223.1 89.397C223.29 88.899 222.49 88.679 222.29 89.176C221.44 91.33 220.11 93.235 218.5 94.892C217.78 95.665 217.01 96.355 216.21 97.046C215.32 97.791 214.05 99.227 212.8 99.172C212.28 99.144 212.28 99.973 212.8 100Z" fill="#5312A7"/>
<path d="M212.86 99.559C215.21 98.04 217.4 96.3 219.44 94.395C219.83 94.036 219.25 93.429 218.86 93.815C216.87 95.693 214.74 97.377 212.44 98.869C211.97 99.117 212.42 99.835 212.86 99.559Z" fill="#5312A7"/>
<path d="M196.59 59.601C195.04 66.642 194.15 73.795 193.96 81.002C193.96 81.416 194.51 81.554 194.73 81.223C195.81 79.511 196.89 77.771 197.97 76.059C198.25 75.617 197.53 75.175 197.25 75.645C196.17 77.357 195.09 79.097 194.01 80.809C194.26 80.891 194.54 80.947 194.79 81.03C194.98 73.905 195.87 66.808 197.39 59.849C197.5 59.297 196.7 59.076 196.59 59.601Z" fill="#5312A7"/>
<path d="M197.69 91.385C197.03 90.142 196.59 88.817 196.48 87.408C196.39 86.414 196.62 82.383 198.5 83.984C199.49 84.84 199.35 86.718 199.38 87.961C199.38 88.541 199.38 89.148 199.33 89.728C199.3 90.142 199.24 90.556 199.16 90.943C198.44 91.44 197.89 91.413 197.53 90.888C197.17 90.501 196.56 91.081 196.95 91.468C198.14 92.683 199.69 92.738 200.02 90.833C200.27 89.48 200.27 88.044 200.16 86.69C200.07 85.613 200.07 84.067 199.27 83.239C198.08 82.024 196.39 83.156 195.92 84.454C195.07 86.773 195.9 89.7 197 91.799C197.22 92.269 197.94 91.854 197.69 91.385Z" fill="#5312A7"/>
<path d="M203.42 66.5321C204.25 70.4261 209.37 70.7291 210.89 67.1391C211.09 66.6421 210.28 66.4211 210.09 66.9191C208.85 69.8461 204.86 69.2931 204.22 66.3111C204.11 65.8141 203.31 66.0071 203.42 66.5321Z" fill="#5312A7"/>
<path d="M201.79 56.9501C202.84 54.6031 205.55 53.4701 208.04 53.9951C210.62 54.5471 212.58 56.5361 213.85 58.7171C214.13 59.1871 214.85 58.7721 214.57 58.3031C213.11 55.7901 210.78 53.5531 207.79 53.1111C205.11 52.7251 202.23 53.9951 201.07 56.5081C200.85 57.0331 201.57 57.4471 201.79 56.9501Z" fill="#5312A7"/>
<path d="M185.57 57.861C186.32 56.315 187.62 54.63 189.53 54.658C191.36 54.685 192.69 56.287 193.6 57.695C193.88 58.137 194.6 57.723 194.32 57.281C193.27 55.597 191.69 53.857 189.53 53.829C187.32 53.802 185.77 55.624 184.88 57.447C184.63 57.916 185.35 58.331 185.57 57.861Z" fill="#5312A7"/>
<path d="M190.47 70.3701C190.96 70.3701 191.36 68.5531 191.36 66.3111C191.36 64.0691 190.96 62.2521 190.47 62.2521C189.98 62.2521 189.59 64.0691 189.59 66.3111C189.59 68.5531 189.98 70.3701 190.47 70.3701Z" fill="#5312A7"/>
<path d="M193.02 114.056C192.94 115.078 192.82 116.486 192.77 118.116C192.52 123.694 192.74 127.919 192.82 129.051C193.05 132.724 193.54 137.529 194.71 143.107C193.6 144.377 191.94 146.255 189.81 148.464C185.77 152.689 183.69 154.843 180.37 157.08C176.66 159.565 174.09 160.338 172.71 160.697C170.96 161.111 169.3 161.498 167.28 161.056C163.99 160.31 162.03 157.88 161.31 156.941C159.48 154.622 159.07 152.357 158.32 147.939C157.76 144.708 157.65 142.251 157.49 137.501C157.41 135.237 157.29 132.475 157.35 128.775C157.41 124.605 157.63 119.662 158.24 114.139C158.51 111.654 158.9 108.589 159.51 105.109C159.04 104.447 158.54 103.784 158.01 103.093C157.46 102.375 156.93 101.685 156.38 100.995C154.97 102.182 153.59 103.397 152.18 104.585C151.82 104.723 151.18 104.944 150.4 104.861C148.94 104.723 148.08 103.701 147.78 103.37C146.42 101.823 146.61 99.8631 146.67 99.4761C148.58 97.4051 150.49 95.3611 152.42 93.2901C152.45 92.1031 152.62 90.5571 153.09 88.8441C153.45 87.5741 153.89 86.5251 154.31 85.6411C154.67 84.9231 155.16 84.1221 155.8 83.3221C156.93 81.8301 158.15 80.7811 159.15 80.0631C158.35 80.4221 158.15 80.4221 158.1 80.3671C157.96 80.1461 159.26 78.5171 161.09 78.3511C162.11 78.2411 162.91 78.6271 163.47 78.8761C164.32 79.2901 164.9 79.8151 165.26 80.2011C166.98 78.7381 168.7 77.2741 170.41 75.8381C171.02 76.1971 171.63 76.6111 172.24 77.0251C173.65 77.9921 174.92 78.9581 176.06 79.8971C175.64 80.4221 175.11 81.0021 174.45 81.5821C173.34 82.5481 172.24 83.1281 171.38 83.5151C171.9 83.6811 172.85 84.0671 173.32 84.9781C173.79 85.8621 173.59 86.8291 173.32 88.0441C173.12 88.8721 172.87 89.5351 172.68 89.9771C172.79 91.1361 172.85 92.7101 172.51 94.4781C171.99 97.3771 170.77 99.5311 169.94 100.774C169.91 101.851 169.88 103.535 169.94 105.606C170.16 114.139 171.41 119.137 172.21 125.433C172.68 129.023 173.15 134.353 173.01 141.063C173.65 140.649 174.56 139.986 175.59 139.13C178.19 136.949 179.85 134.767 182.03 131.564C184.19 128.443 185.6 126.124 187.51 123.031C188.7 121.015 190.61 117.95 193.02 114.056Z" fill="white"/>
<path opacity="0.24" d="M167.86 88.844C167.28 90.115 166.7 91.412 166.12 92.738C164.43 96.714 163.05 100.525 161.92 104.17C161.67 109.914 161.53 114.719 161.42 118.198C161.28 123.473 161.61 129.769 162.22 142.361C162.47 147.553 162.69 150.701 165.13 152.993C167.67 155.367 171.21 155.423 173.21 155.423C183.83 155.395 191.77 146.365 193.96 143.742C191 148.768 187.62 152.054 185.33 153.987C182.72 156.168 179.38 158.902 174.17 160.255C169.77 161.415 167.78 161.166 167.26 161.056C163.47 160.145 161.36 156.997 160.62 155.92C158.82 153.241 158.24 150.452 157.9 144.46C157.57 138.302 157.93 136.672 158.04 128.195C158.12 120.104 157.82 117.812 158.43 112.206C158.79 108.92 159.23 106.214 159.59 104.391C158.51 103.259 157.43 102.127 156.35 101.022C155.44 101.823 154.5 102.596 153.56 103.397C152.95 103.922 152.31 104.446 151.7 104.944C151.15 104.999 150.35 104.971 149.49 104.612C147.28 103.673 145.89 100.939 146.59 100.001C147.03 99.365 148.19 99.862 149.8 99.862C152.56 99.89 154.42 98.482 158.1 95.831C160.7 93.925 163.69 91.799 167.86 88.844Z" fill="#9B9797"/>
<path d="M192.66 113.835C186.27 122.644 181.53 132.751 173.45 140.262C173.07 140.621 173.65 141.201 174.04 140.842C182.17 133.276 186.93 123.114 193.38 114.25C193.71 113.835 192.99 113.421 192.66 113.835Z" fill="#5312A7"/>
<path d="M168.86 161.691C179.82 160.973 187.68 151.805 194.26 144.018C194.6 143.604 194.01 143.024 193.68 143.438C187.29 151.06 179.54 160.172 168.89 160.89C168.34 160.89 168.34 161.719 168.86 161.691Z" fill="#5312A7"/>
<path d="M163.66 83.9011C163.71 86.0831 165.15 87.961 167.26 88.568C167.78 88.706 168 87.9061 167.48 87.7671C165.73 87.2701 164.54 85.6961 164.49 83.9011C164.46 83.3771 163.63 83.3771 163.66 83.9011Z" fill="#5312A7"/>
<path d="M164.52 83.653C164.79 81.25 169.08 82.99 170.24 83.598C171.38 84.178 172.51 84.757 172.76 86.138C172.96 87.188 172.62 88.292 172.35 89.314C172.21 89.839 173.01 90.059 173.15 89.535C173.54 88.154 173.95 86.58 173.37 85.227C172.82 83.846 171.3 83.211 170.05 82.604C168.78 81.996 167.39 81.554 165.96 81.72C165.37 81.803 164.63 81.941 164.16 82.327C163.66 82.714 163.77 82.99 163.69 83.681C163.63 84.178 164.46 84.178 164.52 83.653Z" fill="#5312A7"/>
<path d="M172.07 89.1481C171.99 91.2471 172.46 93.2901 171.96 95.3891C171.49 97.3221 170.55 99.1171 169.61 100.857C169.36 101.326 170.08 101.74 170.33 101.271C171.3 99.4481 172.26 97.5981 172.76 95.6101C173.29 93.4561 172.82 91.3301 172.9 89.1481C172.93 88.5961 172.1 88.5961 172.07 89.1481Z" fill="#5312A7"/>
<path d="M169.61 100.884C168.97 115.437 173.15 129.686 172.49 144.239C172.46 144.763 173.29 144.763 173.32 144.239C173.98 129.686 169.8 115.437 170.44 100.884C170.47 100.359 169.64 100.359 169.61 100.884Z" fill="#5312A7"/>
<path d="M156.02 101.188C156.85 102.348 157.74 103.452 158.73 104.474C159.09 104.861 159.67 104.281 159.31 103.894C158.37 102.9 157.52 101.878 156.74 100.774C156.41 100.332 155.69 100.746 156.02 101.188Z" fill="#5312A7"/>
<path d="M159.2 104.253C157.63 113.228 156.85 122.341 156.88 131.453C156.91 135.982 157.13 140.538 157.57 145.04C157.93 148.878 158.37 152.91 160.39 156.279C162.22 159.344 165.43 161.663 169.08 161.581C169.61 161.553 169.61 160.725 169.08 160.752C163.96 160.89 160.67 156.334 159.48 151.86C158.15 146.945 158.04 141.588 157.85 136.534C157.43 125.82 158.18 115.05 160.03 104.502C160.09 103.949 159.29 103.728 159.2 104.253Z" fill="#5312A7"/>
<path d="M153.97 91.8541C151.37 94.0361 148.85 96.3281 146.48 98.7301C146.09 99.1171 146.7 99.6971 147.06 99.3101C149.46 96.9081 151.95 94.6161 154.56 92.4341C154.97 92.1031 154.39 91.5231 153.97 91.8541Z" fill="#5312A7"/>
<path d="M146.23 99.476C145.81 102.679 148.25 105.385 151.48 105.358C152.01 105.358 152.01 104.529 151.48 104.529C148.69 104.557 146.7 102.21 147.06 99.476C147.14 98.951 146.31 98.951 146.23 99.476Z" fill="#5312A7"/>
<path d="M147 99.2831C149.91 99.3651 151.93 101.961 151.32 104.778C151.21 105.303 152.01 105.524 152.12 104.999C152.87 101.602 150.49 98.5651 147 98.4541C146.48 98.4541 146.48 99.2831 147 99.2831Z" fill="#5312A7"/>
<path d="M152.45 104.861C155.61 101.989 158.82 99.1451 161.89 96.1901C163.3 94.8371 164.66 93.4561 165.93 91.9651C166.62 91.1641 168.36 89.59 168.39 88.485C168.39 88.3471 168.31 88.1821 168.2 88.1261C168.14 88.0991 168.09 88.0711 168.06 88.0711C167.89 87.9881 167.67 87.9881 167.56 88.1261C167.53 88.1541 167.51 88.1821 167.48 88.2371C167.15 88.6511 167.73 89.2311 168.06 88.8171C168.09 88.7891 168.11 88.7621 168.14 88.7061C167.98 88.7341 167.81 88.7621 167.64 88.7621C167.59 88.5131 167.51 88.5131 167.39 88.7891C167.26 88.9821 167.12 89.1761 166.95 89.3691C166.62 89.7831 166.32 90.1971 165.96 90.6121C165.4 91.3021 164.79 91.9651 164.21 92.6281C162.99 93.9531 161.72 95.1961 160.42 96.4111C157.6 99.0621 154.72 101.63 151.87 104.253C151.46 104.64 152.06 105.22 152.45 104.861Z" fill="#5312A7"/>
<path d="M152.81 93.4011C153.01 92.0751 153.2 90.7501 153.39 89.4241C153.53 88.4301 153.64 87.3261 154.2 86.4421C155.47 84.3981 157.27 85.8621 158.24 87.2431C158.65 87.8231 159.04 88.4581 159.45 89.0381C159.67 89.3691 160.75 90.5561 160.62 90.9711C160.75 90.8601 160.89 90.7771 161 90.6671C160.95 90.6671 160.92 90.6671 160.86 90.6671C160.34 90.6391 160.34 91.4681 160.86 91.4951C160.92 91.4951 160.95 91.4951 161 91.4951C161.2 91.4951 161.36 91.3571 161.39 91.1921C161.58 90.5011 161.11 90.0871 160.75 89.5351C160.06 88.5131 159.4 87.4641 158.68 86.4701C157.93 85.4481 156.96 84.4541 155.58 84.5921C154.25 84.7301 153.45 85.7521 153.03 86.9391C152.34 88.9001 152.29 91.1361 151.98 93.1801C151.93 93.7041 152.73 93.9251 152.81 93.4011Z" fill="#5312A7"/>
<path d="M154.11 90.28C154.86 91.744 156.1 93.235 157.88 93.346C159.34 93.456 160.73 92.628 161.11 91.192C161.25 90.667 160.45 90.446 160.31 90.971C159.95 92.296 158.48 92.793 157.27 92.379C156.1 91.965 155.36 90.943 154.83 89.894C154.58 89.397 153.86 89.811 154.11 90.28Z" fill="#5312A7"/>
<path d="M155.14 84.8961C155.27 83.5431 156.82 83.1841 157.88 83.5431C158.98 83.9011 159.84 84.8961 160.62 85.6961C161.22 86.3321 162.41 87.2151 162.58 88.0991C162.8 89.2861 161.31 90.0871 160.31 90.3911C159.81 90.5291 160.01 91.3301 160.53 91.1921C161.75 90.8331 163.52 89.7561 163.71 88.3201C163.8 87.7401 163.44 87.4361 163.05 87.0221C162.28 86.1931 161.53 85.3931 160.73 84.5921C159.65 83.4871 158.26 82.3001 156.6 82.5761C155.36 82.7691 154.44 83.5981 154.31 84.8681C154.25 85.4201 155.08 85.4201 155.14 84.8961Z" fill="#5312A7"/>
<path d="M156.63 82.852C157.02 82.41 157.21 81.83 157.57 81.389C158.46 80.284 159.84 81.306 160.75 81.968C162.52 83.211 164.41 85.475 162.8 87.629C162.5 88.071 163.22 88.485 163.52 88.044C165.24 85.724 163.55 83.045 161.58 81.554C160.67 80.864 159.29 79.621 158.04 79.98C156.93 80.284 156.74 81.554 156.05 82.3C155.69 82.659 156.27 83.239 156.63 82.852Z" fill="#5312A7"/>
<path d="M159.43 80.3391C160.39 79.1521 161.67 77.9091 163.16 79.1521C164.16 79.9531 164.79 81.0851 165.15 82.2721C165.32 82.7691 166.09 82.5761 165.96 82.0511C165.49 80.4501 164.41 78.5991 162.8 77.9371C161.17 77.2741 159.81 78.5721 158.84 79.7591C158.51 80.1461 159.09 80.7531 159.43 80.3391Z" fill="#5312A7"/>
<path d="M165.54 80.45C167.26 78.986 168.97 77.522 170.69 76.087C171.1 75.728 170.49 75.148 170.11 75.507C168.39 76.97 166.68 78.434 164.96 79.87C164.54 80.229 165.15 80.809 165.54 80.45Z" fill="#5312A7"/>
<path d="M171.66 83.9841C173.29 82.7971 174.87 81.5271 176.33 80.1461C176.72 79.7871 176.14 79.2071 175.75 79.5661C174.31 80.8911 172.82 82.1341 171.24 83.2661C170.8 83.5701 171.21 84.2881 171.66 83.9841Z" fill="#5312A7"/>
<path d="M184.08 81.9131C193.31 81.9131 200.79 74.4461 200.79 65.2341C200.79 56.0231 193.31 48.5551 184.08 48.5551C174.85 48.5551 167.37 56.0231 167.37 65.2341C167.37 74.4461 174.85 81.9131 184.08 81.9131Z" stroke="#5312A7" stroke-width="3" stroke-miterlimit="10"/>
<path d="M173.95 67.2781C180.1 63.3561 186.38 59.656 192.8 56.177C193.27 55.928 192.85 55.2101 192.38 55.4591C185.96 58.9101 179.68 62.611 173.54 66.56C173.09 66.863 173.51 67.5811 173.95 67.2781Z" fill="#5312A7"/>
<path d="M174.64 74.5131C179.71 70.8121 184.83 67.2501 190.06 63.7711C190.5 63.4671 190.08 62.7491 189.64 63.0531C184.44 66.5321 179.29 70.1221 174.23 73.7951C173.79 74.0981 174.2 74.8161 174.64 74.5131Z" fill="#5312A7"/>
</svg>
