<svg width="235" height="21" viewBox="0 0 235 21" fill="none" xmlns="http://www.w3.org/2000/svg">
<g filter="url(#filter0_d_3_207)">
<mask id="path-1-inside-1_3_207" fill="white">
<path d="M5.41476 10.0001L6.29256 7.52808H9.82096L10.6989 10.0001H11.8068L8.60226 1.27307H7.51136L4.30676 10.0001H5.41476ZM6.62496 6.59106L8.02266 2.65308H8.09086L9.48856 6.59106H6.62496ZM13.0298 12.455H14.0355V8.99405H14.1207C14.3423 9.35205 14.7685 10.136 16.0298 10.136C17.6662 10.136 18.8082 8.82405 18.8082 6.74405C18.8082 4.68205 17.6662 3.36905 16.0128 3.36905C14.7344 3.36905 14.3423 4.15305 14.1207 4.49405H14.0014V3.45505H13.0298V12.455ZM14.0185 6.72705C14.0185 5.26105 14.6662 4.27307 15.8935 4.27307C17.1719 4.27307 17.8026 5.34705 17.8026 6.72705C17.8026 8.12505 17.1548 9.23306 15.8935 9.23306C14.6832 9.23306 14.0185 8.21005 14.0185 6.72705ZM23.0866 10.136C24.4162 10.136 25.3878 9.47206 25.6946 8.48306L24.723 8.21005C24.4673 8.89205 23.875 9.23306 23.0866 9.23306C21.9062 9.23306 21.0923 8.47005 21.0455 7.06805H25.7969V6.64206C25.7969 4.20506 24.348 3.36905 22.9844 3.36905C21.2116 3.36905 20.0355 4.76708 20.0355 6.77808C20.0355 8.79008 21.1946 10.136 23.0866 10.136ZM21.0455 6.19907C21.1136 5.18007 21.8338 4.27307 22.9844 4.27307C24.0753 4.27307 24.7741 5.09107 24.7741 6.19907H21.0455ZM28.3324 6.06207C28.3324 4.92007 29.0398 4.27307 30.0028 4.27307C30.9361 4.27307 31.5028 4.88206 31.5028 5.90906V10.0001H32.5085V5.84106C32.5085 4.17006 31.6179 3.36905 30.2926 3.36905C29.304 3.36905 28.6903 3.81205 28.3835 4.47705H28.2983V3.45505H27.3267V10.0001H28.3324V6.06207ZM36.2724 10.1531C37.4144 10.1531 38.011 9.54007 38.2156 9.11407H38.2667V10.0001H39.2724V5.68805C39.2724 3.60805 37.6871 3.36905 36.8519 3.36905C35.8633 3.36905 34.7383 3.71008 34.2269 4.90308L35.1815 5.24405C35.4031 4.76705 35.9272 4.25607 36.886 4.25607C37.8107 4.25607 38.2667 4.74605 38.2667 5.58505V5.61905C38.2667 6.10505 37.7724 6.06206 36.5792 6.21606C35.3647 6.37406 34.0394 6.64206 34.0394 8.14206C34.0394 9.42006 35.0281 10.1531 36.2724 10.1531ZM36.4258 9.25006C35.6246 9.25006 35.0451 8.89205 35.0451 8.19305C35.0451 7.42605 35.744 7.18805 36.5281 7.08505C36.9542 7.03405 38.0962 6.91505 38.2667 6.71005V7.63107C38.2667 8.44907 37.619 9.25006 36.4258 9.25006ZM45.7443 4.92007C45.429 3.99107 44.7216 3.36905 43.4261 3.36905C42.0455 3.36905 41.0227 4.15305 41.0227 5.26105C41.0227 6.16505 41.5597 6.77006 42.7614 7.05106L43.8523 7.30707C44.5128 7.46007 44.8239 7.77605 44.8239 8.22705C44.8239 8.79005 44.2273 9.25006 43.2898 9.25006C42.4673 9.25006 41.9517 8.89605 41.7727 8.19305L40.8182 8.43207C41.0526 9.54407 41.9688 10.136 43.3068 10.136C44.8281 10.136 45.8636 9.30506 45.8636 8.17606C45.8636 7.26406 45.2926 6.68908 44.125 6.40308L43.1534 6.16507C42.3778 5.97307 42.0284 5.71305 42.0284 5.21005C42.0284 4.64805 42.625 4.23907 43.4261 4.23907C44.304 4.23907 44.6662 4.72406 44.8409 5.17606L45.7443 4.92007ZM51.7582 1.27307H50.7525V10.0001H51.7582V1.27307ZM56.3445 10.136C57.674 10.136 58.6456 9.47206 58.9524 8.48306L57.9808 8.21005C57.7251 8.89205 57.1328 9.23306 56.3445 9.23306C55.1641 9.23306 54.3501 8.47005 54.3033 7.06805H59.0547V6.64206C59.0547 4.20506 57.6058 3.36905 56.2422 3.36905C54.4695 3.36905 53.2933 4.76708 53.2933 6.77808C53.2933 8.79008 54.4524 10.136 56.3445 10.136ZM54.3033 6.19907C54.3714 5.18007 55.0916 4.27307 56.2422 4.27307C57.3331 4.27307 58.032 5.09107 58.032 6.19907H54.3033ZM63.4311 3.45505H62.0334V1.88605H61.0277V3.45505H60.0391V4.30707H61.0277V8.39807C61.0277 9.54007 61.9482 10.0851 62.8004 10.0851C63.1754 10.0851 63.4141 10.0171 63.5504 9.96606L63.3459 9.06207C63.2607 9.08007 63.1243 9.11407 62.9027 9.11407C62.4595 9.11407 62.0334 8.97706 62.0334 8.12506V4.30707H63.4311V3.45505ZM64.944 10.0001H65.95V5.85806C65.95 4.97206 66.648 4.32407 67.603 4.32407C67.871 4.32407 68.148 4.37506 68.217 4.39206V3.36905C68.102 3.36105 67.837 3.35205 67.688 3.35205C66.904 3.35205 66.222 3.79505 65.984 4.44305H65.915V3.45505H64.944V10.0001ZM71.335 10.1531C72.477 10.1531 73.074 9.54007 73.278 9.11407H73.329V10.0001H74.335V5.68805C74.335 3.60805 72.75 3.36905 71.914 3.36905C70.926 3.36905 69.801 3.71008 69.289 4.90308L70.244 5.24405C70.466 4.76705 70.99 4.25607 71.949 4.25607C72.873 4.25607 73.329 4.74605 73.329 5.58505V5.61905C73.329 6.10505 72.835 6.06206 71.642 6.21606C70.427 6.37406 69.102 6.64206 69.102 8.14206C69.102 9.42006 70.091 10.1531 71.335 10.1531ZM71.488 9.25006C70.687 9.25006 70.108 8.89205 70.108 8.19305C70.108 7.42605 70.806 7.18805 71.591 7.08505C72.017 7.03405 73.159 6.91505 73.329 6.71005V7.63107C73.329 8.44907 72.681 9.25006 71.488 9.25006ZM80.807 4.92007C80.491 3.99107 79.784 3.36905 78.489 3.36905C77.108 3.36905 76.085 4.15305 76.085 5.26105C76.085 6.16505 76.622 6.77006 77.824 7.05106L78.915 7.30707C79.575 7.46007 79.886 7.77605 79.886 8.22705C79.886 8.79005 79.29 9.25006 78.352 9.25006C77.53 9.25006 77.014 8.89605 76.835 8.19305L75.881 8.43207C76.115 9.54407 77.031 10.136 78.369 10.136C79.891 10.136 80.926 9.30506 80.926 8.17606C80.926 7.26406 80.355 6.68908 79.188 6.40308L78.216 6.16507C77.44 5.97307 77.091 5.71305 77.091 5.21005C77.091 4.64805 77.688 4.23907 78.489 4.23907C79.366 4.23907 79.729 4.72406 79.903 5.17606L80.807 4.92007ZM85.815 10.0001H86.821V5.90906C86.821 4.95006 87.52 4.27307 88.304 4.27307C89.066 4.27307 89.599 4.77106 89.599 5.51706V10.0001H90.622V5.73907C90.622 4.89507 91.15 4.27307 92.071 4.27307C92.787 4.27307 93.4 4.65205 93.4 5.61905V10.0001H94.406V5.61905C94.406 4.08105 93.579 3.36905 92.412 3.36905C91.474 3.36905 90.788 3.80005 90.451 4.47705H90.383C90.059 3.77805 89.488 3.36905 88.627 3.36905C87.775 3.36905 87.145 3.77805 86.872 4.47705H86.787V3.45505H85.815V10.0001ZM96.245 10.0001H97.25V3.45505H96.245V10.0001ZM96.756 2.36407C97.148 2.36407 97.472 2.05707 97.472 1.68207C97.472 1.30707 97.148 1.00006 96.756 1.00006C96.364 1.00006 96.04 1.30707 96.04 1.68207C96.04 2.05707 96.364 2.36407 96.756 2.36407ZM100.098 6.06207C100.098 4.92007 100.805 4.27307 101.768 4.27307C102.702 4.27307 103.268 4.88206 103.268 5.90906V10.0001H104.274V5.84106C104.274 4.17006 103.384 3.36905 102.058 3.36905C101.07 3.36905 100.456 3.81205 100.149 4.47705H100.064V3.45505H99.092V10.0001H100.098V6.06207ZM110.237 7.32407C110.237 8.55107 109.299 9.11407 108.549 9.11407C107.714 9.11407 107.118 8.50007 107.118 7.54507V3.45505H106.112V7.61407C106.112 9.28407 106.998 10.0851 108.225 10.0851C109.214 10.0851 109.862 9.55706 110.169 8.89206H110.237V10.0001H111.243V3.45505H110.237V7.32407ZM108.225 2.56805H109.112L110.441 0.591064H109.265L108.225 2.56805ZM117.721 4.92007C117.406 3.99107 116.698 3.36905 115.403 3.36905C114.022 3.36905 112.999 4.15305 112.999 5.26105C112.999 6.16505 113.536 6.77006 114.738 7.05106L115.829 7.30707C116.489 7.46007 116.8 7.77605 116.8 8.22705C116.8 8.79005 116.204 9.25006 115.266 9.25006C114.444 9.25006 113.928 8.89605 113.749 8.19305L112.795 8.43207C113.029 9.54407 113.945 10.136 115.283 10.136C116.805 10.136 117.84 9.30506 117.84 8.17606C117.84 7.26406 117.269 6.68908 116.102 6.40308L115.13 6.16507C114.354 5.97307 114.005 5.71305 114.005 5.21005C114.005 4.64805 114.602 4.23907 115.403 4.23907C116.281 4.23907 116.643 4.72406 116.817 5.17606L117.721 4.92007ZM122.013 10.136C123.462 10.136 124.417 9.25006 124.587 8.09106H123.581C123.394 8.80706 122.797 9.23306 122.013 9.23306C120.82 9.23306 120.053 8.24405 120.053 6.72705C120.053 5.24405 120.837 4.27307 122.013 4.27307C122.9 4.27307 123.428 4.81807 123.581 5.41507H124.587C124.417 4.18807 123.377 3.36905 121.996 3.36905C120.223 3.36905 119.047 4.76705 119.047 6.76105C119.047 8.72205 120.172 10.136 122.013 10.136ZM130.182 7.32407C130.182 8.55107 129.245 9.11407 128.495 9.11407C127.659 9.11407 127.063 8.50007 127.063 7.54507V3.45505H126.057V7.61407C126.057 9.28407 126.944 10.0851 128.171 10.0851C129.159 10.0851 129.807 9.55706 130.114 8.89206H130.182V10.0001H131.188V3.45505H130.182V7.32407ZM134.036 1.27307H133.03V10.0001H134.036V1.27307ZM137.804 10.1531C138.946 10.1531 139.542 9.54007 139.747 9.11407H139.798V10.0001H140.804V5.68805C140.804 3.60805 139.218 3.36905 138.383 3.36905C137.395 3.36905 136.27 3.71008 135.758 4.90308L136.713 5.24405C136.934 4.76705 137.458 4.25607 138.417 4.25607C139.342 4.25607 139.798 4.74605 139.798 5.58505V5.61905C139.798 6.10505 139.304 6.06206 138.11 6.21606C136.896 6.37406 135.571 6.64206 135.571 8.14206C135.571 9.42006 136.559 10.1531 137.804 10.1531ZM137.957 9.25006C137.156 9.25006 136.576 8.89205 136.576 8.19305C136.576 7.42605 137.275 7.18805 138.059 7.08505C138.485 7.03405 139.627 6.91505 139.798 6.71005V7.63107C139.798 8.44907 139.15 9.25006 137.957 9.25006ZM147.276 4.92007C146.96 3.99107 146.253 3.36905 144.957 3.36905C143.577 3.36905 142.554 4.15305 142.554 5.26105C142.554 6.16505 143.091 6.77006 144.293 7.05106L145.384 7.30707C146.044 7.46007 146.355 7.77605 146.355 8.22705C146.355 8.79005 145.759 9.25006 144.821 9.25006C143.999 9.25006 143.483 8.89605 143.304 8.19305L142.349 8.43207C142.584 9.54407 143.5 10.136 144.838 10.136C146.359 10.136 147.395 9.30506 147.395 8.17606C147.395 7.26406 146.824 6.68908 145.656 6.40308L144.685 6.16507C143.909 5.97307 143.56 5.71305 143.56 5.21005C143.56 4.64805 144.156 4.23907 144.957 4.23907C145.835 4.23907 146.197 4.72406 146.372 5.17606L147.276 4.92007ZM155.028 10.136C156.358 10.136 157.329 9.47206 157.636 8.48306L156.664 8.21005C156.409 8.89205 155.816 9.23306 155.028 9.23306C153.848 9.23306 153.034 8.47005 152.987 7.06805H157.738V6.64206C157.738 4.20506 156.289 3.36905 154.926 3.36905C153.153 3.36905 151.977 4.76708 151.977 6.77808C151.977 8.79008 153.136 10.136 155.028 10.136ZM152.987 6.19907C153.055 5.18007 153.775 4.27307 154.926 4.27307C156.017 4.27307 156.716 5.09107 156.716 6.19907H152.987ZM167.279 4.92007C166.964 3.99107 166.257 3.36905 164.961 3.36905C163.581 3.36905 162.558 4.15305 162.558 5.26105C162.558 6.16505 163.095 6.77006 164.297 7.05106L165.387 7.30707C166.048 7.46007 166.359 7.77605 166.359 8.22705C166.359 8.79005 165.762 9.25006 164.825 9.25006C164.002 9.25006 163.487 8.89605 163.308 8.19305L162.353 8.43207C162.588 9.54407 163.504 10.136 164.842 10.136C166.363 10.136 167.399 9.30506 167.399 8.17606C167.399 7.26406 166.828 6.68908 165.66 6.40308L164.689 6.16507C163.913 5.97307 163.564 5.71305 163.564 5.21005C163.564 4.64805 164.16 4.23907 164.961 4.23907C165.839 4.23907 166.201 4.72406 166.376 5.17606L167.279 4.92007ZM171.657 10.136C172.987 10.136 173.958 9.47206 174.265 8.48306L173.293 8.21005C173.038 8.89205 172.445 9.23306 171.657 9.23306C170.477 9.23306 169.663 8.47005 169.616 7.06805H174.367V6.64206C174.367 4.20506 172.918 3.36905 171.555 3.36905C169.782 3.36905 168.606 4.76708 168.606 6.77808C168.606 8.79008 169.765 10.136 171.657 10.136ZM169.616 6.19907C169.684 5.18007 170.404 4.27307 171.555 4.27307C172.646 4.27307 173.344 5.09107 173.344 6.19907H169.616ZM175.897 10.0001H176.903V5.90906C176.903 4.95006 177.602 4.27307 178.386 4.27307C179.148 4.27307 179.681 4.77106 179.681 5.51706V10.0001H180.704V5.73907C180.704 4.89507 181.232 4.27307 182.153 4.27307C182.869 4.27307 183.482 4.65205 183.482 5.61905V10.0001H184.488V5.61905C184.488 4.08105 183.661 3.36905 182.494 3.36905C181.556 3.36905 180.87 3.80005 180.533 4.47705H180.465C180.141 3.77805 179.57 3.36905 178.71 3.36905C177.857 3.36905 177.227 3.77805 176.954 4.47705H176.869V3.45505H175.897V10.0001ZM191.628 10.1531C192.77 10.1531 193.366 9.54007 193.571 9.11407H193.622V10.0001H194.628V5.68805C194.628 3.60805 193.043 3.36905 192.207 3.36905C191.219 3.36905 190.094 3.71008 189.582 4.90308L190.537 5.24405C190.759 4.76705 191.283 4.25607 192.241 4.25607C193.166 4.25607 193.622 4.74605 193.622 5.58505V5.61905C193.622 6.10505 193.128 6.06206 191.935 6.21606C190.72 6.37406 189.395 6.64206 189.395 8.14206C189.395 9.42006 190.384 10.1531 191.628 10.1531ZM191.781 9.25006C190.98 9.25006 190.401 8.89205 190.401 8.19305C190.401 7.42605 191.099 7.18805 191.884 7.08505C192.31 7.03405 193.452 6.91505 193.622 6.71005V7.63107C193.622 8.44907 192.974 9.25006 191.781 9.25006ZM199.123 10.136C200.571 10.136 201.526 9.25006 201.696 8.09106H200.691C200.503 8.80706 199.907 9.23306 199.123 9.23306C197.929 9.23306 197.162 8.24405 197.162 6.72705C197.162 5.24405 197.946 4.27307 199.123 4.27307C200.009 4.27307 200.537 4.81807 200.691 5.41507H201.696C201.526 4.18807 200.486 3.36905 199.105 3.36905C197.333 3.36905 196.157 4.76705 196.157 6.76105C196.157 8.72205 197.282 10.136 199.123 10.136ZM205.911 10.136C207.24 10.136 208.212 9.47206 208.519 8.48306L207.547 8.21005C207.292 8.89205 206.699 9.23306 205.911 9.23306C204.73 9.23306 203.917 8.47005 203.87 7.06805H208.621V6.64206C208.621 4.20506 207.172 3.36905 205.809 3.36905C204.036 3.36905 202.86 4.76708 202.86 6.77808C202.86 8.79008 204.019 10.136 205.911 10.136ZM203.87 6.19907C203.938 5.18007 204.658 4.27307 205.809 4.27307C206.9 4.27307 207.598 5.09107 207.598 6.19907H203.87ZM211.157 6.06207C211.157 4.92007 211.864 4.27307 212.827 4.27307C213.76 4.27307 214.327 4.88206 214.327 5.90906V10.0001H215.333V5.84106C215.333 4.17006 214.442 3.36905 213.117 3.36905C212.128 3.36905 211.515 3.81205 211.208 4.47705H211.123V3.45505H210.151V10.0001H211.157V6.06207ZM220.017 3.45505H218.619V1.88605H217.614V3.45505H216.625V4.30707H217.614V8.39807C217.614 9.54007 218.534 10.0851 219.386 10.0851C219.761 10.0851 220 10.0171 220.136 9.96606L219.932 9.06207C219.847 9.08007 219.71 9.11407 219.489 9.11407C219.045 9.11407 218.619 8.97706 218.619 8.12506V4.30707H220.017V3.45505ZM224.119 10.136C225.891 10.136 227.085 8.79005 227.085 6.76105C227.085 4.71605 225.891 3.36905 224.119 3.36905C222.346 3.36905 221.153 4.71605 221.153 6.76105C221.153 8.79005 222.346 10.136 224.119 10.136ZM224.119 9.23306C222.772 9.23306 222.158 8.07405 222.158 6.76105C222.158 5.44905 222.772 4.27307 224.119 4.27307C225.465 4.27307 226.079 5.44905 226.079 6.76105C226.079 8.07405 225.465 9.23306 224.119 9.23306ZM229.353 10.0681C229.775 10.0681 230.12 9.72306 230.12 9.30106C230.12 8.87906 229.775 8.53406 229.353 8.53406C228.931 8.53406 228.586 8.87906 228.586 9.30106C228.586 9.72306 228.931 10.0681 229.353 10.0681Z"/>
</mask>
<path d="M5.41476 10.0001L6.29256 7.52808H9.82096L10.6989 10.0001H11.8068L8.60226 1.27307H7.51136L4.30676 10.0001H5.41476ZM6.62496 6.59106L8.02266 2.65308H8.09086L9.48856 6.59106H6.62496ZM13.0298 12.455H14.0355V8.99405H14.1207C14.3423 9.35205 14.7685 10.136 16.0298 10.136C17.6662 10.136 18.8082 8.82405 18.8082 6.74405C18.8082 4.68205 17.6662 3.36905 16.0128 3.36905C14.7344 3.36905 14.3423 4.15305 14.1207 4.49405H14.0014V3.45505H13.0298V12.455ZM14.0185 6.72705C14.0185 5.26105 14.6662 4.27307 15.8935 4.27307C17.1719 4.27307 17.8026 5.34705 17.8026 6.72705C17.8026 8.12505 17.1548 9.23306 15.8935 9.23306C14.6832 9.23306 14.0185 8.21005 14.0185 6.72705ZM23.0866 10.136C24.4162 10.136 25.3878 9.47206 25.6946 8.48306L24.723 8.21005C24.4673 8.89205 23.875 9.23306 23.0866 9.23306C21.9062 9.23306 21.0923 8.47005 21.0455 7.06805H25.7969V6.64206C25.7969 4.20506 24.348 3.36905 22.9844 3.36905C21.2116 3.36905 20.0355 4.76708 20.0355 6.77808C20.0355 8.79008 21.1946 10.136 23.0866 10.136ZM21.0455 6.19907C21.1136 5.18007 21.8338 4.27307 22.9844 4.27307C24.0753 4.27307 24.7741 5.09107 24.7741 6.19907H21.0455ZM28.3324 6.06207C28.3324 4.92007 29.0398 4.27307 30.0028 4.27307C30.9361 4.27307 31.5028 4.88206 31.5028 5.90906V10.0001H32.5085V5.84106C32.5085 4.17006 31.6179 3.36905 30.2926 3.36905C29.304 3.36905 28.6903 3.81205 28.3835 4.47705H28.2983V3.45505H27.3267V10.0001H28.3324V6.06207ZM36.2724 10.1531C37.4144 10.1531 38.011 9.54007 38.2156 9.11407H38.2667V10.0001H39.2724V5.68805C39.2724 3.60805 37.6871 3.36905 36.8519 3.36905C35.8633 3.36905 34.7383 3.71008 34.2269 4.90308L35.1815 5.24405C35.4031 4.76705 35.9272 4.25607 36.886 4.25607C37.8107 4.25607 38.2667 4.74605 38.2667 5.58505V5.61905C38.2667 6.10505 37.7724 6.06206 36.5792 6.21606C35.3647 6.37406 34.0394 6.64206 34.0394 8.14206C34.0394 9.42006 35.0281 10.1531 36.2724 10.1531ZM36.4258 9.25006C35.6246 9.25006 35.0451 8.89205 35.0451 8.19305C35.0451 7.42605 35.744 7.18805 36.5281 7.08505C36.9542 7.03405 38.0962 6.91505 38.2667 6.71005V7.63107C38.2667 8.44907 37.619 9.25006 36.4258 9.25006ZM45.7443 4.92007C45.429 3.99107 44.7216 3.36905 43.4261 3.36905C42.0455 3.36905 41.0227 4.15305 41.0227 5.26105C41.0227 6.16505 41.5597 6.77006 42.7614 7.05106L43.8523 7.30707C44.5128 7.46007 44.8239 7.77605 44.8239 8.22705C44.8239 8.79005 44.2273 9.25006 43.2898 9.25006C42.4673 9.25006 41.9517 8.89605 41.7727 8.19305L40.8182 8.43207C41.0526 9.54407 41.9688 10.136 43.3068 10.136C44.8281 10.136 45.8636 9.30506 45.8636 8.17606C45.8636 7.26406 45.2926 6.68908 44.125 6.40308L43.1534 6.16507C42.3778 5.97307 42.0284 5.71305 42.0284 5.21005C42.0284 4.64805 42.625 4.23907 43.4261 4.23907C44.304 4.23907 44.6662 4.72406 44.8409 5.17606L45.7443 4.92007ZM51.7582 1.27307H50.7525V10.0001H51.7582V1.27307ZM56.3445 10.136C57.674 10.136 58.6456 9.47206 58.9524 8.48306L57.9808 8.21005C57.7251 8.89205 57.1328 9.23306 56.3445 9.23306C55.1641 9.23306 54.3501 8.47005 54.3033 7.06805H59.0547V6.64206C59.0547 4.20506 57.6058 3.36905 56.2422 3.36905C54.4695 3.36905 53.2933 4.76708 53.2933 6.77808C53.2933 8.79008 54.4524 10.136 56.3445 10.136ZM54.3033 6.19907C54.3714 5.18007 55.0916 4.27307 56.2422 4.27307C57.3331 4.27307 58.032 5.09107 58.032 6.19907H54.3033ZM63.4311 3.45505H62.0334V1.88605H61.0277V3.45505H60.0391V4.30707H61.0277V8.39807C61.0277 9.54007 61.9482 10.0851 62.8004 10.0851C63.1754 10.0851 63.4141 10.0171 63.5504 9.96606L63.3459 9.06207C63.2607 9.08007 63.1243 9.11407 62.9027 9.11407C62.4595 9.11407 62.0334 8.97706 62.0334 8.12506V4.30707H63.4311V3.45505ZM64.944 10.0001H65.95V5.85806C65.95 4.97206 66.648 4.32407 67.603 4.32407C67.871 4.32407 68.148 4.37506 68.217 4.39206V3.36905C68.102 3.36105 67.837 3.35205 67.688 3.35205C66.904 3.35205 66.222 3.79505 65.984 4.44305H65.915V3.45505H64.944V10.0001ZM71.335 10.1531C72.477 10.1531 73.074 9.54007 73.278 9.11407H73.329V10.0001H74.335V5.68805C74.335 3.60805 72.75 3.36905 71.914 3.36905C70.926 3.36905 69.801 3.71008 69.289 4.90308L70.244 5.24405C70.466 4.76705 70.99 4.25607 71.949 4.25607C72.873 4.25607 73.329 4.74605 73.329 5.58505V5.61905C73.329 6.10505 72.835 6.06206 71.642 6.21606C70.427 6.37406 69.102 6.64206 69.102 8.14206C69.102 9.42006 70.091 10.1531 71.335 10.1531ZM71.488 9.25006C70.687 9.25006 70.108 8.89205 70.108 8.19305C70.108 7.42605 70.806 7.18805 71.591 7.08505C72.017 7.03405 73.159 6.91505 73.329 6.71005V7.63107C73.329 8.44907 72.681 9.25006 71.488 9.25006ZM80.807 4.92007C80.491 3.99107 79.784 3.36905 78.489 3.36905C77.108 3.36905 76.085 4.15305 76.085 5.26105C76.085 6.16505 76.622 6.77006 77.824 7.05106L78.915 7.30707C79.575 7.46007 79.886 7.77605 79.886 8.22705C79.886 8.79005 79.29 9.25006 78.352 9.25006C77.53 9.25006 77.014 8.89605 76.835 8.19305L75.881 8.43207C76.115 9.54407 77.031 10.136 78.369 10.136C79.891 10.136 80.926 9.30506 80.926 8.17606C80.926 7.26406 80.355 6.68908 79.188 6.40308L78.216 6.16507C77.44 5.97307 77.091 5.71305 77.091 5.21005C77.091 4.64805 77.688 4.23907 78.489 4.23907C79.366 4.23907 79.729 4.72406 79.903 5.17606L80.807 4.92007ZM85.815 10.0001H86.821V5.90906C86.821 4.95006 87.52 4.27307 88.304 4.27307C89.066 4.27307 89.599 4.77106 89.599 5.51706V10.0001H90.622V5.73907C90.622 4.89507 91.15 4.27307 92.071 4.27307C92.787 4.27307 93.4 4.65205 93.4 5.61905V10.0001H94.406V5.61905C94.406 4.08105 93.579 3.36905 92.412 3.36905C91.474 3.36905 90.788 3.80005 90.451 4.47705H90.383C90.059 3.77805 89.488 3.36905 88.627 3.36905C87.775 3.36905 87.145 3.77805 86.872 4.47705H86.787V3.45505H85.815V10.0001ZM96.245 10.0001H97.25V3.45505H96.245V10.0001ZM96.756 2.36407C97.148 2.36407 97.472 2.05707 97.472 1.68207C97.472 1.30707 97.148 1.00006 96.756 1.00006C96.364 1.00006 96.04 1.30707 96.04 1.68207C96.04 2.05707 96.364 2.36407 96.756 2.36407ZM100.098 6.06207C100.098 4.92007 100.805 4.27307 101.768 4.27307C102.702 4.27307 103.268 4.88206 103.268 5.90906V10.0001H104.274V5.84106C104.274 4.17006 103.384 3.36905 102.058 3.36905C101.07 3.36905 100.456 3.81205 100.149 4.47705H100.064V3.45505H99.092V10.0001H100.098V6.06207ZM110.237 7.32407C110.237 8.55107 109.299 9.11407 108.549 9.11407C107.714 9.11407 107.118 8.50007 107.118 7.54507V3.45505H106.112V7.61407C106.112 9.28407 106.998 10.0851 108.225 10.0851C109.214 10.0851 109.862 9.55706 110.169 8.89206H110.237V10.0001H111.243V3.45505H110.237V7.32407ZM108.225 2.56805H109.112L110.441 0.591064H109.265L108.225 2.56805ZM117.721 4.92007C117.406 3.99107 116.698 3.36905 115.403 3.36905C114.022 3.36905 112.999 4.15305 112.999 5.26105C112.999 6.16505 113.536 6.77006 114.738 7.05106L115.829 7.30707C116.489 7.46007 116.8 7.77605 116.8 8.22705C116.8 8.79005 116.204 9.25006 115.266 9.25006C114.444 9.25006 113.928 8.89605 113.749 8.19305L112.795 8.43207C113.029 9.54407 113.945 10.136 115.283 10.136C116.805 10.136 117.84 9.30506 117.84 8.17606C117.84 7.26406 117.269 6.68908 116.102 6.40308L115.13 6.16507C114.354 5.97307 114.005 5.71305 114.005 5.21005C114.005 4.64805 114.602 4.23907 115.403 4.23907C116.281 4.23907 116.643 4.72406 116.817 5.17606L117.721 4.92007ZM122.013 10.136C123.462 10.136 124.417 9.25006 124.587 8.09106H123.581C123.394 8.80706 122.797 9.23306 122.013 9.23306C120.82 9.23306 120.053 8.24405 120.053 6.72705C120.053 5.24405 120.837 4.27307 122.013 4.27307C122.9 4.27307 123.428 4.81807 123.581 5.41507H124.587C124.417 4.18807 123.377 3.36905 121.996 3.36905C120.223 3.36905 119.047 4.76705 119.047 6.76105C119.047 8.72205 120.172 10.136 122.013 10.136ZM130.182 7.32407C130.182 8.55107 129.245 9.11407 128.495 9.11407C127.659 9.11407 127.063 8.50007 127.063 7.54507V3.45505H126.057V7.61407C126.057 9.28407 126.944 10.0851 128.171 10.0851C129.159 10.0851 129.807 9.55706 130.114 8.89206H130.182V10.0001H131.188V3.45505H130.182V7.32407ZM134.036 1.27307H133.03V10.0001H134.036V1.27307ZM137.804 10.1531C138.946 10.1531 139.542 9.54007 139.747 9.11407H139.798V10.0001H140.804V5.68805C140.804 3.60805 139.218 3.36905 138.383 3.36905C137.395 3.36905 136.27 3.71008 135.758 4.90308L136.713 5.24405C136.934 4.76705 137.458 4.25607 138.417 4.25607C139.342 4.25607 139.798 4.74605 139.798 5.58505V5.61905C139.798 6.10505 139.304 6.06206 138.11 6.21606C136.896 6.37406 135.571 6.64206 135.571 8.14206C135.571 9.42006 136.559 10.1531 137.804 10.1531ZM137.957 9.25006C137.156 9.25006 136.576 8.89205 136.576 8.19305C136.576 7.42605 137.275 7.18805 138.059 7.08505C138.485 7.03405 139.627 6.91505 139.798 6.71005V7.63107C139.798 8.44907 139.15 9.25006 137.957 9.25006ZM147.276 4.92007C146.96 3.99107 146.253 3.36905 144.957 3.36905C143.577 3.36905 142.554 4.15305 142.554 5.26105C142.554 6.16505 143.091 6.77006 144.293 7.05106L145.384 7.30707C146.044 7.46007 146.355 7.77605 146.355 8.22705C146.355 8.79005 145.759 9.25006 144.821 9.25006C143.999 9.25006 143.483 8.89605 143.304 8.19305L142.349 8.43207C142.584 9.54407 143.5 10.136 144.838 10.136C146.359 10.136 147.395 9.30506 147.395 8.17606C147.395 7.26406 146.824 6.68908 145.656 6.40308L144.685 6.16507C143.909 5.97307 143.56 5.71305 143.56 5.21005C143.56 4.64805 144.156 4.23907 144.957 4.23907C145.835 4.23907 146.197 4.72406 146.372 5.17606L147.276 4.92007ZM155.028 10.136C156.358 10.136 157.329 9.47206 157.636 8.48306L156.664 8.21005C156.409 8.89205 155.816 9.23306 155.028 9.23306C153.848 9.23306 153.034 8.47005 152.987 7.06805H157.738V6.64206C157.738 4.20506 156.289 3.36905 154.926 3.36905C153.153 3.36905 151.977 4.76708 151.977 6.77808C151.977 8.79008 153.136 10.136 155.028 10.136ZM152.987 6.19907C153.055 5.18007 153.775 4.27307 154.926 4.27307C156.017 4.27307 156.716 5.09107 156.716 6.19907H152.987ZM167.279 4.92007C166.964 3.99107 166.257 3.36905 164.961 3.36905C163.581 3.36905 162.558 4.15305 162.558 5.26105C162.558 6.16505 163.095 6.77006 164.297 7.05106L165.387 7.30707C166.048 7.46007 166.359 7.77605 166.359 8.22705C166.359 8.79005 165.762 9.25006 164.825 9.25006C164.002 9.25006 163.487 8.89605 163.308 8.19305L162.353 8.43207C162.588 9.54407 163.504 10.136 164.842 10.136C166.363 10.136 167.399 9.30506 167.399 8.17606C167.399 7.26406 166.828 6.68908 165.66 6.40308L164.689 6.16507C163.913 5.97307 163.564 5.71305 163.564 5.21005C163.564 4.64805 164.16 4.23907 164.961 4.23907C165.839 4.23907 166.201 4.72406 166.376 5.17606L167.279 4.92007ZM171.657 10.136C172.987 10.136 173.958 9.47206 174.265 8.48306L173.293 8.21005C173.038 8.89205 172.445 9.23306 171.657 9.23306C170.477 9.23306 169.663 8.47005 169.616 7.06805H174.367V6.64206C174.367 4.20506 172.918 3.36905 171.555 3.36905C169.782 3.36905 168.606 4.76708 168.606 6.77808C168.606 8.79008 169.765 10.136 171.657 10.136ZM169.616 6.19907C169.684 5.18007 170.404 4.27307 171.555 4.27307C172.646 4.27307 173.344 5.09107 173.344 6.19907H169.616ZM175.897 10.0001H176.903V5.90906C176.903 4.95006 177.602 4.27307 178.386 4.27307C179.148 4.27307 179.681 4.77106 179.681 5.51706V10.0001H180.704V5.73907C180.704 4.89507 181.232 4.27307 182.153 4.27307C182.869 4.27307 183.482 4.65205 183.482 5.61905V10.0001H184.488V5.61905C184.488 4.08105 183.661 3.36905 182.494 3.36905C181.556 3.36905 180.87 3.80005 180.533 4.47705H180.465C180.141 3.77805 179.57 3.36905 178.71 3.36905C177.857 3.36905 177.227 3.77805 176.954 4.47705H176.869V3.45505H175.897V10.0001ZM191.628 10.1531C192.77 10.1531 193.366 9.54007 193.571 9.11407H193.622V10.0001H194.628V5.68805C194.628 3.60805 193.043 3.36905 192.207 3.36905C191.219 3.36905 190.094 3.71008 189.582 4.90308L190.537 5.24405C190.759 4.76705 191.283 4.25607 192.241 4.25607C193.166 4.25607 193.622 4.74605 193.622 5.58505V5.61905C193.622 6.10505 193.128 6.06206 191.935 6.21606C190.72 6.37406 189.395 6.64206 189.395 8.14206C189.395 9.42006 190.384 10.1531 191.628 10.1531ZM191.781 9.25006C190.98 9.25006 190.401 8.89205 190.401 8.19305C190.401 7.42605 191.099 7.18805 191.884 7.08505C192.31 7.03405 193.452 6.91505 193.622 6.71005V7.63107C193.622 8.44907 192.974 9.25006 191.781 9.25006ZM199.123 10.136C200.571 10.136 201.526 9.25006 201.696 8.09106H200.691C200.503 8.80706 199.907 9.23306 199.123 9.23306C197.929 9.23306 197.162 8.24405 197.162 6.72705C197.162 5.24405 197.946 4.27307 199.123 4.27307C200.009 4.27307 200.537 4.81807 200.691 5.41507H201.696C201.526 4.18807 200.486 3.36905 199.105 3.36905C197.333 3.36905 196.157 4.76705 196.157 6.76105C196.157 8.72205 197.282 10.136 199.123 10.136ZM205.911 10.136C207.24 10.136 208.212 9.47206 208.519 8.48306L207.547 8.21005C207.292 8.89205 206.699 9.23306 205.911 9.23306C204.73 9.23306 203.917 8.47005 203.87 7.06805H208.621V6.64206C208.621 4.20506 207.172 3.36905 205.809 3.36905C204.036 3.36905 202.86 4.76708 202.86 6.77808C202.86 8.79008 204.019 10.136 205.911 10.136ZM203.87 6.19907C203.938 5.18007 204.658 4.27307 205.809 4.27307C206.9 4.27307 207.598 5.09107 207.598 6.19907H203.87ZM211.157 6.06207C211.157 4.92007 211.864 4.27307 212.827 4.27307C213.76 4.27307 214.327 4.88206 214.327 5.90906V10.0001H215.333V5.84106C215.333 4.17006 214.442 3.36905 213.117 3.36905C212.128 3.36905 211.515 3.81205 211.208 4.47705H211.123V3.45505H210.151V10.0001H211.157V6.06207ZM220.017 3.45505H218.619V1.88605H217.614V3.45505H216.625V4.30707H217.614V8.39807C217.614 9.54007 218.534 10.0851 219.386 10.0851C219.761 10.0851 220 10.0171 220.136 9.96606L219.932 9.06207C219.847 9.08007 219.71 9.11407 219.489 9.11407C219.045 9.11407 218.619 8.97706 218.619 8.12506V4.30707H220.017V3.45505ZM224.119 10.136C225.891 10.136 227.085 8.79005 227.085 6.76105C227.085 4.71605 225.891 3.36905 224.119 3.36905C222.346 3.36905 221.153 4.71605 221.153 6.76105C221.153 8.79005 222.346 10.136 224.119 10.136ZM224.119 9.23306C222.772 9.23306 222.158 8.07405 222.158 6.76105C222.158 5.44905 222.772 4.27307 224.119 4.27307C225.465 4.27307 226.079 5.44905 226.079 6.76105C226.079 8.07405 225.465 9.23306 224.119 9.23306ZM229.353 10.0681C229.775 10.0681 230.12 9.72306 230.12 9.30106C230.12 8.87906 229.775 8.53406 229.353 8.53406C228.931 8.53406 228.586 8.87906 228.586 9.30106C228.586 9.72306 228.931 10.0681 229.353 10.0681Z" fill="#343A40"/>
<path d="M5.41476 10.0001L6.29256 7.52808H9.82096L10.6989 10.0001H11.8068L8.60226 1.27307H7.51136L4.30676 10.0001H5.41476ZM6.62496 6.59106L8.02266 2.65308H8.09086L9.48856 6.59106H6.62496ZM13.0298 12.455H14.0355V8.99405H14.1207C14.3423 9.35205 14.7685 10.136 16.0298 10.136C17.6662 10.136 18.8082 8.82405 18.8082 6.74405C18.8082 4.68205 17.6662 3.36905 16.0128 3.36905C14.7344 3.36905 14.3423 4.15305 14.1207 4.49405H14.0014V3.45505H13.0298V12.455ZM14.0185 6.72705C14.0185 5.26105 14.6662 4.27307 15.8935 4.27307C17.1719 4.27307 17.8026 5.34705 17.8026 6.72705C17.8026 8.12505 17.1548 9.23306 15.8935 9.23306C14.6832 9.23306 14.0185 8.21005 14.0185 6.72705ZM23.0866 10.136C24.4162 10.136 25.3878 9.47206 25.6946 8.48306L24.723 8.21005C24.4673 8.89205 23.875 9.23306 23.0866 9.23306C21.9062 9.23306 21.0923 8.47005 21.0455 7.06805H25.7969V6.64206C25.7969 4.20506 24.348 3.36905 22.9844 3.36905C21.2116 3.36905 20.0355 4.76708 20.0355 6.77808C20.0355 8.79008 21.1946 10.136 23.0866 10.136ZM21.0455 6.19907C21.1136 5.18007 21.8338 4.27307 22.9844 4.27307C24.0753 4.27307 24.7741 5.09107 24.7741 6.19907H21.0455ZM28.3324 6.06207C28.3324 4.92007 29.0398 4.27307 30.0028 4.27307C30.9361 4.27307 31.5028 4.88206 31.5028 5.90906V10.0001H32.5085V5.84106C32.5085 4.17006 31.6179 3.36905 30.2926 3.36905C29.304 3.36905 28.6903 3.81205 28.3835 4.47705H28.2983V3.45505H27.3267V10.0001H28.3324V6.06207ZM36.2724 10.1531C37.4144 10.1531 38.011 9.54007 38.2156 9.11407H38.2667V10.0001H39.2724V5.68805C39.2724 3.60805 37.6871 3.36905 36.8519 3.36905C35.8633 3.36905 34.7383 3.71008 34.2269 4.90308L35.1815 5.24405C35.4031 4.76705 35.9272 4.25607 36.886 4.25607C37.8107 4.25607 38.2667 4.74605 38.2667 5.58505V5.61905C38.2667 6.10505 37.7724 6.06206 36.5792 6.21606C35.3647 6.37406 34.0394 6.64206 34.0394 8.14206C34.0394 9.42006 35.0281 10.1531 36.2724 10.1531ZM36.4258 9.25006C35.6246 9.25006 35.0451 8.89205 35.0451 8.19305C35.0451 7.42605 35.744 7.18805 36.5281 7.08505C36.9542 7.03405 38.0962 6.91505 38.2667 6.71005V7.63107C38.2667 8.44907 37.619 9.25006 36.4258 9.25006ZM45.7443 4.92007C45.429 3.99107 44.7216 3.36905 43.4261 3.36905C42.0455 3.36905 41.0227 4.15305 41.0227 5.26105C41.0227 6.16505 41.5597 6.77006 42.7614 7.05106L43.8523 7.30707C44.5128 7.46007 44.8239 7.77605 44.8239 8.22705C44.8239 8.79005 44.2273 9.25006 43.2898 9.25006C42.4673 9.25006 41.9517 8.89605 41.7727 8.19305L40.8182 8.43207C41.0526 9.54407 41.9688 10.136 43.3068 10.136C44.8281 10.136 45.8636 9.30506 45.8636 8.17606C45.8636 7.26406 45.2926 6.68908 44.125 6.40308L43.1534 6.16507C42.3778 5.97307 42.0284 5.71305 42.0284 5.21005C42.0284 4.64805 42.625 4.23907 43.4261 4.23907C44.304 4.23907 44.6662 4.72406 44.8409 5.17606L45.7443 4.92007ZM51.7582 1.27307H50.7525V10.0001H51.7582V1.27307ZM56.3445 10.136C57.674 10.136 58.6456 9.47206 58.9524 8.48306L57.9808 8.21005C57.7251 8.89205 57.1328 9.23306 56.3445 9.23306C55.1641 9.23306 54.3501 8.47005 54.3033 7.06805H59.0547V6.64206C59.0547 4.20506 57.6058 3.36905 56.2422 3.36905C54.4695 3.36905 53.2933 4.76708 53.2933 6.77808C53.2933 8.79008 54.4524 10.136 56.3445 10.136ZM54.3033 6.19907C54.3714 5.18007 55.0916 4.27307 56.2422 4.27307C57.3331 4.27307 58.032 5.09107 58.032 6.19907H54.3033ZM63.4311 3.45505H62.0334V1.88605H61.0277V3.45505H60.0391V4.30707H61.0277V8.39807C61.0277 9.54007 61.9482 10.0851 62.8004 10.0851C63.1754 10.0851 63.4141 10.0171 63.5504 9.96606L63.3459 9.06207C63.2607 9.08007 63.1243 9.11407 62.9027 9.11407C62.4595 9.11407 62.0334 8.97706 62.0334 8.12506V4.30707H63.4311V3.45505ZM64.944 10.0001H65.95V5.85806C65.95 4.97206 66.648 4.32407 67.603 4.32407C67.871 4.32407 68.148 4.37506 68.217 4.39206V3.36905C68.102 3.36105 67.837 3.35205 67.688 3.35205C66.904 3.35205 66.222 3.79505 65.984 4.44305H65.915V3.45505H64.944V10.0001ZM71.335 10.1531C72.477 10.1531 73.074 9.54007 73.278 9.11407H73.329V10.0001H74.335V5.68805C74.335 3.60805 72.75 3.36905 71.914 3.36905C70.926 3.36905 69.801 3.71008 69.289 4.90308L70.244 5.24405C70.466 4.76705 70.99 4.25607 71.949 4.25607C72.873 4.25607 73.329 4.74605 73.329 5.58505V5.61905C73.329 6.10505 72.835 6.06206 71.642 6.21606C70.427 6.37406 69.102 6.64206 69.102 8.14206C69.102 9.42006 70.091 10.1531 71.335 10.1531ZM71.488 9.25006C70.687 9.25006 70.108 8.89205 70.108 8.19305C70.108 7.42605 70.806 7.18805 71.591 7.08505C72.017 7.03405 73.159 6.91505 73.329 6.71005V7.63107C73.329 8.44907 72.681 9.25006 71.488 9.25006ZM80.807 4.92007C80.491 3.99107 79.784 3.36905 78.489 3.36905C77.108 3.36905 76.085 4.15305 76.085 5.26105C76.085 6.16505 76.622 6.77006 77.824 7.05106L78.915 7.30707C79.575 7.46007 79.886 7.77605 79.886 8.22705C79.886 8.79005 79.29 9.25006 78.352 9.25006C77.53 9.25006 77.014 8.89605 76.835 8.19305L75.881 8.43207C76.115 9.54407 77.031 10.136 78.369 10.136C79.891 10.136 80.926 9.30506 80.926 8.17606C80.926 7.26406 80.355 6.68908 79.188 6.40308L78.216 6.16507C77.44 5.97307 77.091 5.71305 77.091 5.21005C77.091 4.64805 77.688 4.23907 78.489 4.23907C79.366 4.23907 79.729 4.72406 79.903 5.17606L80.807 4.92007ZM85.815 10.0001H86.821V5.90906C86.821 4.95006 87.52 4.27307 88.304 4.27307C89.066 4.27307 89.599 4.77106 89.599 5.51706V10.0001H90.622V5.73907C90.622 4.89507 91.15 4.27307 92.071 4.27307C92.787 4.27307 93.4 4.65205 93.4 5.61905V10.0001H94.406V5.61905C94.406 4.08105 93.579 3.36905 92.412 3.36905C91.474 3.36905 90.788 3.80005 90.451 4.47705H90.383C90.059 3.77805 89.488 3.36905 88.627 3.36905C87.775 3.36905 87.145 3.77805 86.872 4.47705H86.787V3.45505H85.815V10.0001ZM96.245 10.0001H97.25V3.45505H96.245V10.0001ZM96.756 2.36407C97.148 2.36407 97.472 2.05707 97.472 1.68207C97.472 1.30707 97.148 1.00006 96.756 1.00006C96.364 1.00006 96.04 1.30707 96.04 1.68207C96.04 2.05707 96.364 2.36407 96.756 2.36407ZM100.098 6.06207C100.098 4.92007 100.805 4.27307 101.768 4.27307C102.702 4.27307 103.268 4.88206 103.268 5.90906V10.0001H104.274V5.84106C104.274 4.17006 103.384 3.36905 102.058 3.36905C101.07 3.36905 100.456 3.81205 100.149 4.47705H100.064V3.45505H99.092V10.0001H100.098V6.06207ZM110.237 7.32407C110.237 8.55107 109.299 9.11407 108.549 9.11407C107.714 9.11407 107.118 8.50007 107.118 7.54507V3.45505H106.112V7.61407C106.112 9.28407 106.998 10.0851 108.225 10.0851C109.214 10.0851 109.862 9.55706 110.169 8.89206H110.237V10.0001H111.243V3.45505H110.237V7.32407ZM108.225 2.56805H109.112L110.441 0.591064H109.265L108.225 2.56805ZM117.721 4.92007C117.406 3.99107 116.698 3.36905 115.403 3.36905C114.022 3.36905 112.999 4.15305 112.999 5.26105C112.999 6.16505 113.536 6.77006 114.738 7.05106L115.829 7.30707C116.489 7.46007 116.8 7.77605 116.8 8.22705C116.8 8.79005 116.204 9.25006 115.266 9.25006C114.444 9.25006 113.928 8.89605 113.749 8.19305L112.795 8.43207C113.029 9.54407 113.945 10.136 115.283 10.136C116.805 10.136 117.84 9.30506 117.84 8.17606C117.84 7.26406 117.269 6.68908 116.102 6.40308L115.13 6.16507C114.354 5.97307 114.005 5.71305 114.005 5.21005C114.005 4.64805 114.602 4.23907 115.403 4.23907C116.281 4.23907 116.643 4.72406 116.817 5.17606L117.721 4.92007ZM122.013 10.136C123.462 10.136 124.417 9.25006 124.587 8.09106H123.581C123.394 8.80706 122.797 9.23306 122.013 9.23306C120.82 9.23306 120.053 8.24405 120.053 6.72705C120.053 5.24405 120.837 4.27307 122.013 4.27307C122.9 4.27307 123.428 4.81807 123.581 5.41507H124.587C124.417 4.18807 123.377 3.36905 121.996 3.36905C120.223 3.36905 119.047 4.76705 119.047 6.76105C119.047 8.72205 120.172 10.136 122.013 10.136ZM130.182 7.32407C130.182 8.55107 129.245 9.11407 128.495 9.11407C127.659 9.11407 127.063 8.50007 127.063 7.54507V3.45505H126.057V7.61407C126.057 9.28407 126.944 10.0851 128.171 10.0851C129.159 10.0851 129.807 9.55706 130.114 8.89206H130.182V10.0001H131.188V3.45505H130.182V7.32407ZM134.036 1.27307H133.03V10.0001H134.036V1.27307ZM137.804 10.1531C138.946 10.1531 139.542 9.54007 139.747 9.11407H139.798V10.0001H140.804V5.68805C140.804 3.60805 139.218 3.36905 138.383 3.36905C137.395 3.36905 136.27 3.71008 135.758 4.90308L136.713 5.24405C136.934 4.76705 137.458 4.25607 138.417 4.25607C139.342 4.25607 139.798 4.74605 139.798 5.58505V5.61905C139.798 6.10505 139.304 6.06206 138.11 6.21606C136.896 6.37406 135.571 6.64206 135.571 8.14206C135.571 9.42006 136.559 10.1531 137.804 10.1531ZM137.957 9.25006C137.156 9.25006 136.576 8.89205 136.576 8.19305C136.576 7.42605 137.275 7.18805 138.059 7.08505C138.485 7.03405 139.627 6.91505 139.798 6.71005V7.63107C139.798 8.44907 139.15 9.25006 137.957 9.25006ZM147.276 4.92007C146.96 3.99107 146.253 3.36905 144.957 3.36905C143.577 3.36905 142.554 4.15305 142.554 5.26105C142.554 6.16505 143.091 6.77006 144.293 7.05106L145.384 7.30707C146.044 7.46007 146.355 7.77605 146.355 8.22705C146.355 8.79005 145.759 9.25006 144.821 9.25006C143.999 9.25006 143.483 8.89605 143.304 8.19305L142.349 8.43207C142.584 9.54407 143.5 10.136 144.838 10.136C146.359 10.136 147.395 9.30506 147.395 8.17606C147.395 7.26406 146.824 6.68908 145.656 6.40308L144.685 6.16507C143.909 5.97307 143.56 5.71305 143.56 5.21005C143.56 4.64805 144.156 4.23907 144.957 4.23907C145.835 4.23907 146.197 4.72406 146.372 5.17606L147.276 4.92007ZM155.028 10.136C156.358 10.136 157.329 9.47206 157.636 8.48306L156.664 8.21005C156.409 8.89205 155.816 9.23306 155.028 9.23306C153.848 9.23306 153.034 8.47005 152.987 7.06805H157.738V6.64206C157.738 4.20506 156.289 3.36905 154.926 3.36905C153.153 3.36905 151.977 4.76708 151.977 6.77808C151.977 8.79008 153.136 10.136 155.028 10.136ZM152.987 6.19907C153.055 5.18007 153.775 4.27307 154.926 4.27307C156.017 4.27307 156.716 5.09107 156.716 6.19907H152.987ZM167.279 4.92007C166.964 3.99107 166.257 3.36905 164.961 3.36905C163.581 3.36905 162.558 4.15305 162.558 5.26105C162.558 6.16505 163.095 6.77006 164.297 7.05106L165.387 7.30707C166.048 7.46007 166.359 7.77605 166.359 8.22705C166.359 8.79005 165.762 9.25006 164.825 9.25006C164.002 9.25006 163.487 8.89605 163.308 8.19305L162.353 8.43207C162.588 9.54407 163.504 10.136 164.842 10.136C166.363 10.136 167.399 9.30506 167.399 8.17606C167.399 7.26406 166.828 6.68908 165.66 6.40308L164.689 6.16507C163.913 5.97307 163.564 5.71305 163.564 5.21005C163.564 4.64805 164.16 4.23907 164.961 4.23907C165.839 4.23907 166.201 4.72406 166.376 5.17606L167.279 4.92007ZM171.657 10.136C172.987 10.136 173.958 9.47206 174.265 8.48306L173.293 8.21005C173.038 8.89205 172.445 9.23306 171.657 9.23306C170.477 9.23306 169.663 8.47005 169.616 7.06805H174.367V6.64206C174.367 4.20506 172.918 3.36905 171.555 3.36905C169.782 3.36905 168.606 4.76708 168.606 6.77808C168.606 8.79008 169.765 10.136 171.657 10.136ZM169.616 6.19907C169.684 5.18007 170.404 4.27307 171.555 4.27307C172.646 4.27307 173.344 5.09107 173.344 6.19907H169.616ZM175.897 10.0001H176.903V5.90906C176.903 4.95006 177.602 4.27307 178.386 4.27307C179.148 4.27307 179.681 4.77106 179.681 5.51706V10.0001H180.704V5.73907C180.704 4.89507 181.232 4.27307 182.153 4.27307C182.869 4.27307 183.482 4.65205 183.482 5.61905V10.0001H184.488V5.61905C184.488 4.08105 183.661 3.36905 182.494 3.36905C181.556 3.36905 180.87 3.80005 180.533 4.47705H180.465C180.141 3.77805 179.57 3.36905 178.71 3.36905C177.857 3.36905 177.227 3.77805 176.954 4.47705H176.869V3.45505H175.897V10.0001ZM191.628 10.1531C192.77 10.1531 193.366 9.54007 193.571 9.11407H193.622V10.0001H194.628V5.68805C194.628 3.60805 193.043 3.36905 192.207 3.36905C191.219 3.36905 190.094 3.71008 189.582 4.90308L190.537 5.24405C190.759 4.76705 191.283 4.25607 192.241 4.25607C193.166 4.25607 193.622 4.74605 193.622 5.58505V5.61905C193.622 6.10505 193.128 6.06206 191.935 6.21606C190.72 6.37406 189.395 6.64206 189.395 8.14206C189.395 9.42006 190.384 10.1531 191.628 10.1531ZM191.781 9.25006C190.98 9.25006 190.401 8.89205 190.401 8.19305C190.401 7.42605 191.099 7.18805 191.884 7.08505C192.31 7.03405 193.452 6.91505 193.622 6.71005V7.63107C193.622 8.44907 192.974 9.25006 191.781 9.25006ZM199.123 10.136C200.571 10.136 201.526 9.25006 201.696 8.09106H200.691C200.503 8.80706 199.907 9.23306 199.123 9.23306C197.929 9.23306 197.162 8.24405 197.162 6.72705C197.162 5.24405 197.946 4.27307 199.123 4.27307C200.009 4.27307 200.537 4.81807 200.691 5.41507H201.696C201.526 4.18807 200.486 3.36905 199.105 3.36905C197.333 3.36905 196.157 4.76705 196.157 6.76105C196.157 8.72205 197.282 10.136 199.123 10.136ZM205.911 10.136C207.24 10.136 208.212 9.47206 208.519 8.48306L207.547 8.21005C207.292 8.89205 206.699 9.23306 205.911 9.23306C204.73 9.23306 203.917 8.47005 203.87 7.06805H208.621V6.64206C208.621 4.20506 207.172 3.36905 205.809 3.36905C204.036 3.36905 202.86 4.76708 202.86 6.77808C202.86 8.79008 204.019 10.136 205.911 10.136ZM203.87 6.19907C203.938 5.18007 204.658 4.27307 205.809 4.27307C206.9 4.27307 207.598 5.09107 207.598 6.19907H203.87ZM211.157 6.06207C211.157 4.92007 211.864 4.27307 212.827 4.27307C213.76 4.27307 214.327 4.88206 214.327 5.90906V10.0001H215.333V5.84106C215.333 4.17006 214.442 3.36905 213.117 3.36905C212.128 3.36905 211.515 3.81205 211.208 4.47705H211.123V3.45505H210.151V10.0001H211.157V6.06207ZM220.017 3.45505H218.619V1.88605H217.614V3.45505H216.625V4.30707H217.614V8.39807C217.614 9.54007 218.534 10.0851 219.386 10.0851C219.761 10.0851 220 10.0171 220.136 9.96606L219.932 9.06207C219.847 9.08007 219.71 9.11407 219.489 9.11407C219.045 9.11407 218.619 8.97706 218.619 8.12506V4.30707H220.017V3.45505ZM224.119 10.136C225.891 10.136 227.085 8.79005 227.085 6.76105C227.085 4.71605 225.891 3.36905 224.119 3.36905C222.346 3.36905 221.153 4.71605 221.153 6.76105C221.153 8.79005 222.346 10.136 224.119 10.136ZM224.119 9.23306C222.772 9.23306 222.158 8.07405 222.158 6.76105C222.158 5.44905 222.772 4.27307 224.119 4.27307C225.465 4.27307 226.079 5.44905 226.079 6.76105C226.079 8.07405 225.465 9.23306 224.119 9.23306ZM229.353 10.0681C229.775 10.0681 230.12 9.72306 230.12 9.30106C230.12 8.87906 229.775 8.53406 229.353 8.53406C228.931 8.53406 228.586 8.87906 228.586 9.30106C228.586 9.72306 228.931 10.0681 229.353 10.0681Z" stroke="black" stroke-width="2" mask="url(#path-1-inside-1_3_207)"/>
</g>
<defs>
<filter id="filter0_d_3_207" x="0.306763" y="0.591064" width="233.813" height="19.864" filterUnits="userSpaceOnUse" color-interpolation-filters="sRGB">
<feFlood flood-opacity="0" result="BackgroundImageFix"/>
<feColorMatrix in="SourceAlpha" type="matrix" values="0 0 0 0 0 0 0 0 0 0 0 0 0 0 0 0 0 0 127 0" result="hardAlpha"/>
<feOffset dy="4"/>
<feGaussianBlur stdDeviation="2"/>
<feComposite in2="hardAlpha" operator="out"/>
<feColorMatrix type="matrix" values="0 0 0 0 0 0 0 0 0 0 0 0 0 0 0 0 0 0 0.25 0"/>
<feBlend mode="normal" in2="BackgroundImageFix" result="effect1_dropShadow_3_207"/>
<feBlend mode="normal" in="SourceGraphic" in2="effect1_dropShadow_3_207" result="shape"/>
</filter>
</defs>
</svg>
