<svg width="16" height="16" viewBox="0 0 16 16" fill="none" xmlns="http://www.w3.org/2000/svg">
<path d="M16 8C16 10.122 15.1571 12.157 13.6569 13.657C12.1566 15.157 10.1217 16 8 16C5.8783 16 3.8434 15.157 2.3431 13.657C0.8429 12.157 0 10.122 0 8C0 5.878 0.8429 3.84299 2.3431 2.34299C3.8434 0.842987 5.8783 0 8 0C10.1217 0 12.1566 0.842987 13.6569 2.34299C15.1571 3.84299 16 5.878 16 8ZM8 4C7.8736 4 7.7486 4.027 7.6331 4.078C7.5176 4.129 7.4141 4.204 7.3293 4.298C7.2446 4.392 7.1803 4.50201 7.1408 4.62201C7.1013 4.74201 7.0874 4.869 7.1 4.995L7.45 8.50201C7.4618 8.64001 7.5248 8.768 7.6266 8.862C7.7285 8.955 7.8617 9.00699 8 9.00699C8.1383 9.00699 8.2715 8.955 8.3734 8.862C8.4752 8.768 8.5382 8.64001 8.55 8.50201L8.9 4.995C8.9126 4.869 8.8987 4.74201 8.8592 4.62201C8.8197 4.50201 8.7554 4.392 8.6707 4.298C8.5859 4.204 8.4824 4.129 8.3669 4.078C8.2514 4.027 8.1264 4 8 4ZM8.002 10C7.7368 10 7.4824 10.105 7.2949 10.293C7.1074 10.48 7.002 10.735 7.002 11C7.002 11.265 7.1074 11.52 7.2949 11.707C7.4824 11.895 7.7368 12 8.002 12C8.2672 12 8.5216 11.895 8.7091 11.707C8.8966 11.52 9.002 11.265 9.002 11C9.002 10.735 8.8966 10.48 8.7091 10.293C8.5216 10.105 8.2672 10 8.002 10Z" fill="#343A40"/>
</svg>
